  0
SECTION
  2
HEADER
  9
$ACADVER
  1
AC1024
  9
$ACADMAINTVER
 70
     6
  9
$DWGCODEPAGE
  3
UNDEFINED
  9
$INSBASE
 10
0.0
 20
0.0
 30
0.0
  9
$EXTMIN
 10
1.000000000000000E+20
 20
1.000000000000000E+20
 30
1.000000000000000E+20
  9
$EXTMAX
 10
-1.000000000000000E+20
 20
-1.000000000000000E+20
 30
-1.000000000000000E+20
  9
$LIMMIN
 10
0.0
 20
0.0
  9
$LIMMAX
 10
12.0
 20
9.0
  9
$ORTHOMODE
 70
     0
  9
$REGENMODE
 70
     1
  9
$FILLMODE
 70
     1
  9
$QTEXTMODE
 70
     0
  9
$MIRRTEXT
 70
     1
  9
$LTSCALE
 40
1.0
  9
$ATTMODE
 70
     1
  9
$TEXTSIZE
 40
0.2
  9
$TRACEWID
 40
0.05
  9
$TEXTSTYLE
  7
Standard
  9
$CLAYER
  8
0
  9
$CELTYPE
  6
ByLayer
  9
$CECOLOR
 62
   256
  9
$CELTSCALE
 40
1.0
  9
$DISPSILH
 70
     0
  9
$DIMSCALE
 40
1.0
  9
$DIMASZ
 40
0.18
  9
$DIMEXO
 40
0.0625
  9
$DIMDLI
 40
0.38
  9
$DIMRND
 40
0.0
  9
$DIMDLE
 40
0.0
  9
$DIMEXE
 40
0.18
  9
$DIMTP
 40
0.0
  9
$DIMTM
 40
0.0
  9
$DIMTXT
 40
0.18
  9
$DIMCEN
 40
0.09
  9
$DIMTSZ
 40
0.0
  9
$DIMTOL
 70
     0
  9
$DIMLIM
 70
     0
  9
$DIMTIH
 70
     1
  9
$DIMTOH
 70
     1
  9
$DIMSE1
 70
     0
  9
$DIMSE2
 70
     0
  9
$DIMTAD
 70
     0
  9
$DIMZIN
 70
     0
  9
$DIMBLK
  1

  9
$DIMASO
 70
     1
  9
$DIMSHO
 70
     1
  9
$DIMPOST
  1

  9
$DIMAPOST
  1

  9
$DIMALT
 70
     0
  9
$DIMALTD
 70
     2
  9
$DIMALTF
 40
25.4
  9
$DIMLFAC
 40
1.0
  9
$DIMTOFL
 70
     0
  9
$DIMTVP
 40
0.0
  9
$DIMTIX
 70
     0
  9
$DIMSOXD
 70
     0
  9
$DIMSAH
 70
     0
  9
$DIMBLK1
  1

  9
$DIMBLK2
  1

  9
$DIMSTYLE
  2
Standard
  9
$DIMCLRD
 70
     0
  9
$DIMCLRE
 70
     0
  9
$DIMCLRT
 70
     0
  9
$DIMTFAC
 40
1.0
  9
$DIMGAP
 40
0.09
  9
$DIMJUST
 70
     0
  9
$DIMSD1
 70
     0
  9
$DIMSD2
 70
     0
  9
$DIMTOLJ
 70
     1
  9
$DIMTZIN
 70
     0
  9
$DIMALTZ
 70
     0
  9
$DIMALTTZ
 70
     0
  9
$DIMUPT
 70
     0
  9
$DIMDEC
 70
     4
  9
$DIMTDEC
 70
     4
  9
$DIMALTU
 70
     2
  9
$DIMALTTD
 70
     2
  9
$DIMTXSTY
  7
Standard
  9
$DIMAUNIT
 70
     0
  9
$DIMADEC
 70
     0
  9
$DIMALTRND
 40
0.0
  9
$DIMAZIN
 70
     0
  9
$DIMDSEP
 70
    46
  9
$DIMATFIT
 70
     3
  9
$DIMFRAC
 70
     0
  9
$DIMLDRBLK
  1

  9
$DIMLUNIT
 70
     2
  9
$DIMLWD
 70
    -2
  9
$DIMLWE
 70
    -2
  9
$DIMTMOVE
 70
     0
  9
$DIMFXL
 40
1.0
  9
$DIMFXLON
 70
     0
  9
$DIMJOGANG
 40
0.7853981633974483
  9
$DIMTFILL
 70
     0
  9
$DIMTFILLCLR
 70
     0
  9
$DIMARCSYM
 70
     0
  9
$DIMLTYPE
  6

  9
$DIMLTEX1
  6

  9
$DIMLTEX2
  6

  9
$DIMTXTDIRECTION
 70
     0
  9
$LUNITS
 70
     2
  9
$LUPREC
 70
     4
  9
$SKETCHINC
 40
0.1
  9
$FILLETRAD
 40
0.5
  9
$AUNITS
 70
     0
  9
$AUPREC
 70
     0
  9
$MENU
  1
.
  9
$ELEVATION
 40
0.0
  9
$PELEVATION
 40
0.0
  9
$THICKNESS
 40
0.0
  9
$LIMCHECK
 70
     0
  9
$CHAMFERA
 40
0.5
  9
$CHAMFERB
 40
0.5
  9
$CHAMFERC
 40
1.0
  9
$CHAMFERD
 40
0.0
  9
$SKPOLY
 70
     0
  9
$TDCREATE
 40
2458545.695416655
  9
$TDUCREATE
 40
2458545.90375
  9
$TDUPDATE
 40
2458545.695416655
  9
$TDUUPDATE
 40
2458545.90375
  9
$TDINDWG
 40
0.0000000116
  9
$TDUSRTIMER
 40
0.0000000116
  9
$USRTIMER
 70
     1
  9
$ANGBASE
 50
0.0
  9
$ANGDIR
 70
     0
  9
$PDMODE
 70
     0
  9
$PDSIZE
 40
0.0
  9
$PLINEWID
 40
0.0
  9
$SPLFRAME
 70
     0
  9
$SPLINETYPE
 70
     6
  9
$SPLINESEGS
 70
     8
  9
$HANDSEED
  5
18F
  9
$SURFTAB1
 70
     6
  9
$SURFTAB2
 70
     6
  9
$SURFTYPE
 70
     6
  9
$SURFU
 70
     6
  9
$SURFV
 70
     6
  9
$UCSBASE
  2

  9
$UCSNAME
  2

  9
$UCSORG
 10
0.0
 20
0.0
 30
0.0
  9
$UCSXDIR
 10
1.0
 20
0.0
 30
0.0
  9
$UCSYDIR
 10
0.0
 20
1.0
 30
0.0
  9
$UCSORTHOREF
  2

  9
$UCSORTHOVIEW
 70
     0
  9
$UCSORGTOP
 10
0.0
 20
0.0
 30
0.0
  9
$UCSORGBOTTOM
 10
0.0
 20
0.0
 30
0.0
  9
$UCSORGLEFT
 10
0.0
 20
0.0
 30
0.0
  9
$UCSORGRIGHT
 10
0.0
 20
0.0
 30
0.0
  9
$UCSORGFRONT
 10
0.0
 20
0.0
 30
0.0
  9
$UCSORGBACK
 10
0.0
 20
0.0
 30
0.0
  9
$PUCSBASE
  2

  9
$PUCSNAME
  2

  9
$PUCSORG
 10
0.0
 20
0.0
 30
0.0
  9
$PUCSXDIR
 10
1.0
 20
0.0
 30
0.0
  9
$PUCSYDIR
 10
0.0
 20
1.0
 30
0.0
  9
$PUCSORTHOREF
  2

  9
$PUCSORTHOVIEW
 70
     0
  9
$PUCSORGTOP
 10
0.0
 20
0.0
 30
0.0
  9
$PUCSORGBOTTOM
 10
0.0
 20
0.0
 30
0.0
  9
$PUCSORGLEFT
 10
0.0
 20
0.0
 30
0.0
  9
$PUCSORGRIGHT
 10
0.0
 20
0.0
 30
0.0
  9
$PUCSORGFRONT
 10
0.0
 20
0.0
 30
0.0
  9
$PUCSORGBACK
 10
0.0
 20
0.0
 30
0.0
  9
$USERI1
 70
     0
  9
$USERI2
 70
     0
  9
$USERI3
 70
     0
  9
$USERI4
 70
     0
  9
$USERI5
 70
     0
  9
$USERR1
 40
0.0
  9
$USERR2
 40
0.0
  9
$USERR3
 40
0.0
  9
$USERR4
 40
0.0
  9
$USERR5
 40
0.0
  9
$WORLDVIEW
 70
     1
  9
$SHADEDGE
 70
     3
  9
$SHADEDIF
 70
    70
  9
$TILEMODE
 70
     1
  9
$MAXACTVP
 70
    64
  9
$PINSBASE
 10
0.0
 20
0.0
 30
0.0
  9
$PLIMCHECK
 70
     0
  9
$PEXTMIN
 10
1.000000000000000E+20
 20
1.000000000000000E+20
 30
1.000000000000000E+20
  9
$PEXTMAX
 10
-1.000000000000000E+20
 20
-1.000000000000000E+20
 30
-1.000000000000000E+20
  9
$PLIMMIN
 10
0.0
 20
0.0
  9
$PLIMMAX
 10
12.0
 20
9.0
  9
$UNITMODE
 70
     0
  9
$VISRETAIN
 70
     1
  9
$PLINEGEN
 70
     0
  9
$PSLTSCALE
 70
     1
  9
$TREEDEPTH
 70
  3020
  9
$CMLSTYLE
  2
Standard
  9
$CMLJUST
 70
     0
  9
$CMLSCALE
 40
1.0
  9
$PROXYGRAPHICS
 70
     1
  9
$MEASUREMENT
 70
     0
  9
$CELWEIGHT
370
    -1
  9
$ENDCAPS
280
     0
  9
$JOINSTYLE
280
     0
  9
$LWDISPLAY
290
     1
  9
$INSUNITS
 70
     1
  9
$HYPERLINKBASE
  1

  9
$STYLESHEET
  1

  9
$XEDIT
290
     1
  9
$CEPSNTYPE
380
     0
  9
$PSTYLEMODE
290
     1
  9
$FINGERPRINTGUID
  2
{A924015D-E19B-BCE6-4277-43B96E63C462}
  9
$VERSIONGUID
  2
{FAEB1C32-E019-11D5-929B-00C0DF256EC4}
  9
$EXTNAMES
290
     1
  9
$PSVPSCALE
 40
0.0
  9
$OLESTARTUP
290
     0
  9
$SORTENTS
280
   127
  9
$INDEXCTL
280
     0
  9
$HIDETEXT
280
     1
  9
$XCLIPFRAME
280
     2
  9
$HALOGAP
280
     0
  9
$OBSCOLOR
 70
   257
  9
$OBSLTYPE
280
     0
  9
$INTERSECTIONDISPLAY
280
     0
  9
$INTERSECTIONCOLOR
 70
   257
  9
$DIMASSOC
280
     2
  9
$PROJECTNAME
  1

  9
$CAMERADISPLAY
290
     0
  9
$LENSLENGTH
 40
50.0
  9
$CAMERAHEIGHT
 40
0.0
  9
$STEPSPERSEC
 40
2.0
  9
$STEPSIZE
 40
6.0
  9
$3DDWFPREC
 40
2.0
  9
$PSOLWIDTH
 40
0.25
  9
$PSOLHEIGHT
 40
4.0
  9
$LOFTANG1
 40
1.570796326794897
  9
$LOFTANG2
 40
1.570796326794897
  9
$LOFTMAG1
 40
0.0
  9
$LOFTMAG2
 40
0.0
  9
$LOFTPARAM
 70
     7
  9
$LOFTNORMALS
280
     1
  9
$LATITUDE
 40
37.795
  9
$LONGITUDE
 40
-122.394
  9
$NORTHDIRECTION
 40
0.0
  9
$TIMEZONE
 70
 -8000
  9
$LIGHTGLYPHDISPLAY
280
     1
  9
$TILEMODELIGHTSYNCH
280
     1
  9
$CMATERIAL
347
3C
  9
$SOLIDHIST
280
     1
  9
$SHOWHIST
280
     1
  9
$DWFFRAME
280
     2
  9
$DGNFRAME
280
     2
  9
$REALWORLDSCALE
290
     1
  9
$INTERFERECOLOR
 62
   256
  9
$CSHADOW
280
     0
  9
$SHADOWPLANELOCATION
 40
0.0
  0
ENDSEC
  0
SECTION
  2
CLASSES
  0
CLASS
  1
ACDBDICTIONARYWDFLT
  2
AcDbDictionaryWithDefault
  3
ObjectDBX Classes
 90
        0
 91
        4
280
     0
281
     0
  0
CLASS
  1
VISUALSTYLE
  2
AcDbVisualStyle
  3
ObjectDBX Classes
 90
     4095
 91
        4
280
     0
281
     0
  0
CLASS
  1
MATERIAL
  2
AcDbMaterial
  3
ObjectDBX Classes
 90
     1153
 91
        4
280
     0
281
     0
  0
CLASS
  1
SUN
  2
AcDbSun
  3
SCENEOE
 90
     1024
 91
        4
280
     0
281
     0
  0
ENDSEC
  0
SECTION
  2
TABLES
  0
TABLE
  2
VPORT
  5
8
330
0
100
AcDbSymbolTable
 70
     1
  0
VPORT
  5
29
330
8
100
AcDbSymbolTableRecord
100
AcDbViewportTableRecord
  2
*Active
 70
     0
 10
0.0
 20
0.0
 11
1.0
 21
1.0
 12
0.0
 22
0.0
 13
0.0
 23
0.0
 14
0.5
 24
0.5
 15
0.5
 25
0.5
 16
0.0
 26
0.0
 36
1.0
 17
304.7999999238
 27
-152.3999999619
 37
0.0
 40
304.7999999238
 41
2.0
 42
50.0
 43
0.0
 44
0.0
 50
0.0
 51
0.0
 71
     0
 72
   100
 73
     1
 74
     3
 75
     0
 76
     0
 77
     0
 78
     0
281
     0
 65
     1
110
0.0
120
0.0
130
0.0
111
1.0
121
0.0
131
0.0
112
0.0
122
1.0
132
0.0
 79
     0
146
0.0
 60
     3
 61
     5
292
     1
282
     1
141
0.0
142
0.0
 63
   250
361
3F
  0
ENDTAB
  0
TABLE
  2
LTYPE
  5
5
330
0
100
AcDbSymbolTable
 70
     1
  0
LTYPE
  5
14
330
5
100
AcDbSymbolTableRecord
100
AcDbLinetypeTableRecord
  2
ByBlock
 70
     0
  3

 72
    65
 73
     0
 40
0.0
  0
LTYPE
  5
15
330
5
100
AcDbSymbolTableRecord
100
AcDbLinetypeTableRecord
  2
ByLayer
 70
     0
  3

 72
    65
 73
     0
 40
0.0
  0
LTYPE
  5
16
330
5
100
AcDbSymbolTableRecord
100
AcDbLinetypeTableRecord
  2
Continuous
 70
     0
  3
Solid line
 72
    65
 73
     0
 40
0.0
  0
ENDTAB
  0
TABLE
  2
LAYER
  5
2
330
0
100
AcDbSymbolTable
 70
     2
  0
LAYER
  5
10
330
2
100
AcDbSymbolTableRecord
100
AcDbLayerTableRecord
  2
0
 70
     0
 62
     7
  6
Continuous
370
    -3
390
F
347
3E
  0
LAYER
  5
40
330
2
100
AcDbSymbolTableRecord
100
AcDbLayerTableRecord
  2
Layer 1
 70
     0
 62
     7
  6
Continuous
370
    -3
390
F
347
3E
  0
ENDTAB
  0
TABLE
  2
STYLE
  5
3
330
0
100
AcDbSymbolTable
 70
     1
  0
STYLE
  5
11
330
3
100
AcDbSymbolTableRecord
100
AcDbTextStyleTableRecord
  2
Standard
 70
     0
 40
0.0
 41
1.0
 50
0.0
 71
     0
 42
0.2
  3
txt
  4

  0
ENDTAB
  0
TABLE
  2
VIEW
  5
6
330
0
100
AcDbSymbolTable
 70
     0
  0
ENDTAB
  0
TABLE
  2
UCS
  5
7
330
0
100
AcDbSymbolTable
 70
     0
  0
ENDTAB
  0
TABLE
  2
APPID
  5
9
330
0
100
AcDbSymbolTable
 70
     1
  0
APPID
  5
12
330
9
100
AcDbSymbolTableRecord
100
AcDbRegAppTableRecord
  2
ACAD
 70
     0
  0
ENDTAB
  0
TABLE
  2
DIMSTYLE
  5
A
330
0
100
AcDbSymbolTable
 70
     1
100
AcDbDimStyleTable
  0
DIMSTYLE
105
27
330
A
100
AcDbSymbolTableRecord
100
AcDbDimStyleTableRecord
  2
Standard
 70
     0
178
     0
340
11
  0
ENDTAB
  0
TABLE
  2
BLOCK_RECORD
  5
1
330
0
100
AcDbSymbolTable
 70
     1
  0
BLOCK_RECORD
  5
1F
330
1
100
AcDbSymbolTableRecord
100
AcDbBlockTableRecord
  2
*Model_Space
340
22
 70
     0
280
     1
281
     0
  0
BLOCK_RECORD
  5
1B
330
1
100
AcDbSymbolTableRecord
100
AcDbBlockTableRecord
  2
*Paper_Space
340
1E
 70
     0
280
     1
281
     0
  0
BLOCK_RECORD
  5
23
330
1
100
AcDbSymbolTableRecord
100
AcDbBlockTableRecord
  2
*Paper_Space0
340
26
 70
     0
280
     1
281
     0
  0
ENDTAB
  0
ENDSEC
  0
SECTION
  2
BLOCKS
  0
BLOCK
  5
20
330
1F
100
AcDbEntity
  8
0
100
AcDbBlockBegin
  2
*Model_Space
 70
     0
 10
0.0
 20
0.0
 30
0.0
  3
*Model_Space
  1

  0
ENDBLK
  5
21
330
1F
100
AcDbEntity
  8
0
100
AcDbBlockEnd
  0
BLOCK
  5
1C
330
1B
100
AcDbEntity
 67
     1
  8
0
100
AcDbBlockBegin
  2
*Paper_Space
 70
     0
 10
0.0
 20
0.0
 30
0.0
  3
*Paper_Space
  1

  0
ENDBLK
  5
1D
330
1B
100
AcDbEntity
 67
     1
  8
0
100
AcDbBlockEnd
  0
BLOCK
  5
24
330
23
100
AcDbEntity
  8
0
100
AcDbBlockBegin
  2
*Paper_Space0
 70
     0
 10
0.0
 20
0.0
 30
0.0
  3
*Paper_Space0
  1

  0
ENDBLK
  5
25
330
23
100
AcDbEntity
  8
0
100
AcDbBlockEnd
  0
ENDSEC
  0
SECTION
  2
ENTITIES
  0
POLYLINE
  5
41
330
1F
100
AcDbEntity
  8
Layer 1
 62
     1
420
 16711680
370
    35
100
AcDb2dPolyline
 66
     1
 10
0.0
 20
0.0
 30
0.0
  0
VERTEX
  5
42
330
41
100
AcDbEntity
  8
Layer 1
 62
     1
420
 16711680
370
    35
100
AcDbVertex
100
AcDb2dVertex
 10
293.9612081808164
 20
-97.71388239073373
 30
0.0
  0
VERTEX
  5
43
330
41
100
AcDbEntity
  8
Layer 1
 62
     1
420
 16711680
370
    35
100
AcDbVertex
100
AcDb2dVertex
 10
301.9612077284709
 20
-97.71388239073373
 30
0.0
  0
SEQEND
  5
44
330
41
100
AcDbEntity
  8
Layer 1
 62
     1
420
 16711680
370
    35
  0
POLYLINE
  5
45
330
1F
100
AcDbEntity
  8
Layer 1
 62
     1
420
 16711680
370
    35
100
AcDb2dPolyline
 66
     1
 10
0.0
 20
0.0
 30
0.0
  0
VERTEX
  5
46
330
45
100
AcDbEntity
  8
Layer 1
 62
     1
420
 16711680
370
    35
100
AcDbVertex
100
AcDb2dVertex
 10
301.9612077284709
 20
-97.71388239073373
 30
0.0
  0
VERTEX
  5
47
330
45
100
AcDbEntity
  8
Layer 1
 62
     1
420
 16711680
370
    35
100
AcDbVertex
100
AcDb2dVertex
 10
301.9612077284709
 20
-75.71388363468579
 30
0.0
  0
SEQEND
  5
48
330
45
100
AcDbEntity
  8
Layer 1
 62
     1
420
 16711680
370
    35
  0
POLYLINE
  5
49
330
1F
100
AcDbEntity
  8
Layer 1
 62
     1
420
 16711680
370
    35
100
AcDb2dPolyline
 66
     1
 10
0.0
 20
0.0
 30
0.0
  0
VERTEX
  5
4A
330
49
100
AcDbEntity
  8
Layer 1
 62
     1
420
 16711680
370
    35
100
AcDbVertex
100
AcDb2dVertex
 10
301.9612077284709
 20
-75.71388363468579
 30
0.0
  0
VERTEX
  5
4B
330
49
100
AcDbEntity
  8
Layer 1
 62
     1
420
 16711680
370
    35
100
AcDbVertex
100
AcDb2dVertex
 10
293.9612081808164
 20
-75.71388363468579
 30
0.0
  0
SEQEND
  5
4C
330
49
100
AcDbEntity
  8
Layer 1
 62
     1
420
 16711680
370
    35
  0
SPLINE
  5
4D
330
1F
100
AcDbEntity
  8
Layer 1
 62
     7
420
 16777215
370
    35
100
AcDbSpline
210
0.0
220
0.0
230
1.0
 70
    11
 71
     3
 72
    17
 73
    13
 74
     0
 42
0.0000000001
 43
0.0000000001
 12
1.0
 22
0.0
 32
0.0
 13
1.0
 23
0.0
 33
0.0
 40
0.0
 40
0.0
 40
0.0
 40
0.0
 40
1.0
 40
1.0
 40
1.0
 40
2.0
 40
2.0
 40
2.0
 40
3.0
 40
3.0
 40
3.0
 40
4.0
 40
4.0
 40
4.0
 40
4.0
 10
299.461207869829
 20
-79.21388343678433
 30
0.0
 10
299.461207869829
 20
-80.04231356572342
 30
0.0
 10
298.7896342688857
 20
-80.71388335196941
 30
0.0
 10
297.9612079546433
 20
-80.71388335196941
 30
0.0
 10
297.1327816404016
 20
-80.71388335196941
 30
0.0
 10
296.4612080394582
 20
-80.04231356572342
 30
0.0
 10
296.4612080394582
 20
-79.21388343678433
 30
0.0
 10
296.4612080394582
 20
-78.38545330784522
 30
0.0
 10
297.1327816404016
 20
-77.71388352159924
 30
0.0
 10
297.9612079546433
 20
-77.71388352159924
 30
0.0
 10
298.7896342688857
 20
-77.71388352159924
 30
0.0
 10
299.461207869829
 20
-78.38545330784522
 30
0.0
 10
299.461207869829
 20
-79.21388343678433
 30
0.0
  0
SPLINE
  5
4E
330
1F
100
AcDbEntity
  8
Layer 1
 62
     7
420
 16777215
370
    35
100
AcDbSpline
210
0.0
220
0.0
230
1.0
 70
    11
 71
     3
 72
    17
 73
    13
 74
     0
 42
0.0000000001
 43
0.0000000001
 12
1.0
 22
0.0
 32
0.0
 13
1.0
 23
0.0
 33
0.0
 40
0.0
 40
0.0
 40
0.0
 40
0.0
 40
1.0
 40
1.0
 40
1.0
 40
2.0
 40
2.0
 40
2.0
 40
3.0
 40
3.0
 40
3.0
 40
4.0
 40
4.0
 40
4.0
 40
4.0
 10
299.461207869829
 20
-94.21388258863519
 30
0.0
 10
299.461207869829
 20
-95.04231271757429
 30
0.0
 10
298.7896342688857
 20
-95.71388250382027
 30
0.0
 10
297.9612079546433
 20
-95.71388250382027
 30
0.0
 10
297.1327816404016
 20
-95.71388250382027
 30
0.0
 10
296.4612080394582
 20
-95.04231271757429
 30
0.0
 10
296.4612080394582
 20
-94.21388258863519
 30
0.0
 10
296.4612080394582
 20
-93.3854524596961
 30
0.0
 10
297.1327816404016
 20
-92.7138826734501
 30
0.0
 10
297.9612079546433
 20
-92.7138826734501
 30
0.0
 10
298.7896342688857
 20
-92.7138826734501
 30
0.0
 10
299.461207869829
 20
-93.3854524596961
 30
0.0
 10
299.461207869829
 20
-94.21388258863519
 30
0.0
  0
POLYLINE
  5
4F
330
1F
100
AcDbEntity
  8
Layer 1
 62
     1
420
 16711680
370
    35
100
AcDb2dPolyline
 66
     1
 10
0.0
 20
0.0
 30
0.0
  0
VERTEX
  5
50
330
4F
100
AcDbEntity
  8
Layer 1
 62
     1
420
 16711680
370
    35
100
AcDbVertex
100
AcDb2dVertex
 10
285.9612086331626
 20
-97.71388239073373
 30
0.0
  0
VERTEX
  5
51
330
4F
100
AcDbEntity
  8
Layer 1
 62
     1
420
 16711680
370
    35
100
AcDbVertex
100
AcDb2dVertex
 10
293.9612081808164
 20
-97.71388239073373
 30
0.0
  0
SEQEND
  5
52
330
4F
100
AcDbEntity
  8
Layer 1
 62
     1
420
 16711680
370
    35
  0
POLYLINE
  5
53
330
1F
100
AcDbEntity
  8
Layer 1
 62
     1
420
 16711680
370
    35
100
AcDb2dPolyline
 66
     1
 10
0.0
 20
0.0
 30
0.0
  0
VERTEX
  5
54
330
53
100
AcDbEntity
  8
Layer 1
 62
     1
420
 16711680
370
    35
100
AcDbVertex
100
AcDb2dVertex
 10
293.9612081808164
 20
-97.71388239073373
 30
0.0
  0
VERTEX
  5
55
330
53
100
AcDbEntity
  8
Layer 1
 62
     1
420
 16711680
370
    35
100
AcDbVertex
100
AcDb2dVertex
 10
293.9612081808164
 20
-75.71388363468579
 30
0.0
  0
SEQEND
  5
56
330
53
100
AcDbEntity
  8
Layer 1
 62
     1
420
 16711680
370
    35
  0
POLYLINE
  5
57
330
1F
100
AcDbEntity
  8
Layer 1
 62
     1
420
 16711680
370
    35
100
AcDb2dPolyline
 66
     1
 10
0.0
 20
0.0
 30
0.0
  0
VERTEX
  5
58
330
57
100
AcDbEntity
  8
Layer 1
 62
     1
420
 16711680
370
    35
100
AcDbVertex
100
AcDb2dVertex
 10
293.9612081808164
 20
-75.71388363468579
 30
0.0
  0
VERTEX
  5
59
330
57
100
AcDbEntity
  8
Layer 1
 62
     1
420
 16711680
370
    35
100
AcDbVertex
100
AcDb2dVertex
 10
285.9612086331626
 20
-75.71388363468579
 30
0.0
  0
SEQEND
  5
5A
330
57
100
AcDbEntity
  8
Layer 1
 62
     1
420
 16711680
370
    35
  0
SPLINE
  5
5B
330
1F
100
AcDbEntity
  8
Layer 1
 62
     7
420
 16777215
370
    35
100
AcDbSpline
210
0.0
220
0.0
230
1.0
 70
    11
 71
     3
 72
    17
 73
    13
 74
     0
 42
0.0000000001
 43
0.0000000001
 12
1.0
 22
0.0
 32
0.0
 13
1.0
 23
0.0
 33
0.0
 40
0.0
 40
0.0
 40
0.0
 40
0.0
 40
1.0
 40
1.0
 40
1.0
 40
2.0
 40
2.0
 40
2.0
 40
3.0
 40
3.0
 40
3.0
 40
4.0
 40
4.0
 40
4.0
 40
4.0
 10
291.4612083221746
 20
-79.21388343678433
 30
0.0
 10
291.4612083221746
 20
-80.04231356572342
 30
0.0
 10
290.7896347212313
 20
-80.71388335196941
 30
0.0
 10
289.9612084069895
 20
-80.71388335196941
 30
0.0
 10
289.1327820927472
 20
-80.71388335196941
 30
0.0
 10
288.4612084918044
 20
-80.04231356572342
 30
0.0
 10
288.4612084918044
 20
-79.21388343678433
 30
0.0
 10
288.4612084918044
 20
-78.38545330784522
 30
0.0
 10
289.1327820927472
 20
-77.71388352159924
 30
0.0
 10
289.9612084069895
 20
-77.71388352159924
 30
0.0
 10
290.7896347212313
 20
-77.71388352159924
 30
0.0
 10
291.4612083221746
 20
-78.38545330784522
 30
0.0
 10
291.4612083221746
 20
-79.21388343678433
 30
0.0
  0
SPLINE
  5
5C
330
1F
100
AcDbEntity
  8
Layer 1
 62
     7
420
 16777215
370
    35
100
AcDbSpline
210
0.0
220
0.0
230
1.0
 70
    11
 71
     3
 72
    17
 73
    13
 74
     0
 42
0.0000000001
 43
0.0000000001
 12
1.0
 22
0.0
 32
0.0
 13
1.0
 23
0.0
 33
0.0
 40
0.0
 40
0.0
 40
0.0
 40
0.0
 40
1.0
 40
1.0
 40
1.0
 40
2.0
 40
2.0
 40
2.0
 40
3.0
 40
3.0
 40
3.0
 40
4.0
 40
4.0
 40
4.0
 40
4.0
 10
291.4612083221746
 20
-94.21388258863519
 30
0.0
 10
291.4612083221746
 20
-95.04231271757429
 30
0.0
 10
290.7896347212313
 20
-95.71388250382027
 30
0.0
 10
289.9612084069895
 20
-95.71388250382027
 30
0.0
 10
289.1327820927472
 20
-95.71388250382027
 30
0.0
 10
288.4612084918044
 20
-95.04231271757429
 30
0.0
 10
288.4612084918044
 20
-94.21388258863519
 30
0.0
 10
288.4612084918044
 20
-93.3854524596961
 30
0.0
 10
289.1327820927472
 20
-92.7138826734501
 30
0.0
 10
289.9612084069895
 20
-92.7138826734501
 30
0.0
 10
290.7896347212313
 20
-92.7138826734501
 30
0.0
 10
291.4612083221746
 20
-93.3854524596961
 30
0.0
 10
291.4612083221746
 20
-94.21388258863519
 30
0.0
  0
POLYLINE
  5
5D
330
1F
100
AcDbEntity
  8
Layer 1
 62
     1
420
 16711680
370
    35
100
AcDb2dPolyline
 66
     1
 10
0.0
 20
0.0
 30
0.0
  0
VERTEX
  5
5E
330
5D
100
AcDbEntity
  8
Layer 1
 62
     1
420
 16711680
370
    35
100
AcDbVertex
100
AcDb2dVertex
 10
277.9612090855088
 20
-97.71388239073373
 30
0.0
  0
VERTEX
  5
5F
330
5D
100
AcDbEntity
  8
Layer 1
 62
     1
420
 16711680
370
    35
100
AcDbVertex
100
AcDb2dVertex
 10
285.9612086331626
 20
-97.71388239073373
 30
0.0
  0
SEQEND
  5
60
330
5D
100
AcDbEntity
  8
Layer 1
 62
     1
420
 16711680
370
    35
  0
POLYLINE
  5
61
330
1F
100
AcDbEntity
  8
Layer 1
 62
     1
420
 16711680
370
    35
100
AcDb2dPolyline
 66
     1
 10
0.0
 20
0.0
 30
0.0
  0
VERTEX
  5
62
330
61
100
AcDbEntity
  8
Layer 1
 62
     1
420
 16711680
370
    35
100
AcDbVertex
100
AcDb2dVertex
 10
285.9612086331626
 20
-97.71388239073373
 30
0.0
  0
VERTEX
  5
63
330
61
100
AcDbEntity
  8
Layer 1
 62
     1
420
 16711680
370
    35
100
AcDbVertex
100
AcDb2dVertex
 10
285.9612086331626
 20
-75.71388363468579
 30
0.0
  0
SEQEND
  5
64
330
61
100
AcDbEntity
  8
Layer 1
 62
     1
420
 16711680
370
    35
  0
SPLINE
  5
65
330
1F
100
AcDbEntity
  8
Layer 1
 62
     7
420
 16777215
370
    35
100
AcDbSpline
210
0.0
220
0.0
230
1.0
 70
    11
 71
     3
 72
    17
 73
    13
 74
     0
 42
0.0000000001
 43
0.0000000001
 12
1.0
 22
0.0
 32
0.0
 13
1.0
 23
0.0
 33
0.0
 40
0.0
 40
0.0
 40
0.0
 40
0.0
 40
1.0
 40
1.0
 40
1.0
 40
2.0
 40
2.0
 40
2.0
 40
3.0
 40
3.0
 40
3.0
 40
4.0
 40
4.0
 40
4.0
 40
4.0
 10
283.4612087745208
 20
-79.21388343678433
 30
0.0
 10
283.4612087745208
 20
-80.04231356572342
 30
0.0
 10
282.7896351735781
 20
-80.71388335196941
 30
0.0
 10
281.9612088593357
 20
-80.71388335196941
 30
0.0
 10
281.1327787303966
 20
-80.71388335196941
 30
0.0
 10
280.4612089441507
 20
-80.04231356572342
 30
0.0
 10
280.4612089441507
 20
-79.21388343678433
 30
0.0
 10
280.4612089441507
 20
-78.38545330784522
 30
0.0
 10
281.1327787303966
 20
-77.71388352159924
 30
0.0
 10
281.9612088593357
 20
-77.71388352159924
 30
0.0
 10
282.7896351735781
 20
-77.71388352159924
 30
0.0
 10
283.4612087745208
 20
-78.38545330784522
 30
0.0
 10
283.4612087745208
 20
-79.21388343678433
 30
0.0
  0
SPLINE
  5
66
330
1F
100
AcDbEntity
  8
Layer 1
 62
     7
420
 16777215
370
    35
100
AcDbSpline
210
0.0
220
0.0
230
1.0
 70
    11
 71
     3
 72
    17
 73
    13
 74
     0
 42
0.0000000001
 43
0.0000000001
 12
1.0
 22
0.0
 32
0.0
 13
1.0
 23
0.0
 33
0.0
 40
0.0
 40
0.0
 40
0.0
 40
0.0
 40
1.0
 40
1.0
 40
1.0
 40
2.0
 40
2.0
 40
2.0
 40
3.0
 40
3.0
 40
3.0
 40
4.0
 40
4.0
 40
4.0
 40
4.0
 10
283.4612087745208
 20
-94.21388258863519
 30
0.0
 10
283.4612087745208
 20
-95.04231271757429
 30
0.0
 10
282.7896351735781
 20
-95.71388250382027
 30
0.0
 10
281.9612088593357
 20
-95.71388250382027
 30
0.0
 10
281.1327787303966
 20
-95.71388250382027
 30
0.0
 10
280.4612089441507
 20
-95.04231271757429
 30
0.0
 10
280.4612089441507
 20
-94.21388258863519
 30
0.0
 10
280.4612089441507
 20
-93.3854524596961
 30
0.0
 10
281.1327787303966
 20
-92.7138826734501
 30
0.0
 10
281.9612088593357
 20
-92.7138826734501
 30
0.0
 10
282.7896351735781
 20
-92.7138826734501
 30
0.0
 10
283.4612087745208
 20
-93.3854524596961
 30
0.0
 10
283.4612087745208
 20
-94.21388258863519
 30
0.0
  0
POLYLINE
  5
67
330
1F
100
AcDbEntity
  8
Layer 1
 62
     1
420
 16711680
370
    35
100
AcDb2dPolyline
 66
     1
 10
0.0
 20
0.0
 30
0.0
  0
VERTEX
  5
68
330
67
100
AcDbEntity
  8
Layer 1
 62
     1
420
 16711680
370
    35
100
AcDbVertex
100
AcDb2dVertex
 10
269.961209537855
 20
-97.71388239073373
 30
0.0
  0
VERTEX
  5
69
330
67
100
AcDbEntity
  8
Layer 1
 62
     1
420
 16711680
370
    35
100
AcDbVertex
100
AcDb2dVertex
 10
277.9612090855088
 20
-97.71388239073373
 30
0.0
  0
SEQEND
  5
6A
330
67
100
AcDbEntity
  8
Layer 1
 62
     1
420
 16711680
370
    35
  0
POLYLINE
  5
6B
330
1F
100
AcDbEntity
  8
Layer 1
 62
     1
420
 16711680
370
    35
100
AcDb2dPolyline
 66
     1
 10
0.0
 20
0.0
 30
0.0
  0
VERTEX
  5
6C
330
6B
100
AcDbEntity
  8
Layer 1
 62
     1
420
 16711680
370
    35
100
AcDbVertex
100
AcDb2dVertex
 10
277.9612090855088
 20
-97.71388239073373
 30
0.0
  0
VERTEX
  5
6D
330
6B
100
AcDbEntity
  8
Layer 1
 62
     1
420
 16711680
370
    35
100
AcDbVertex
100
AcDb2dVertex
 10
277.9612090855088
 20
-75.71388363468579
 30
0.0
  0
SEQEND
  5
6E
330
6B
100
AcDbEntity
  8
Layer 1
 62
     1
420
 16711680
370
    35
  0
POLYLINE
  5
6F
330
1F
100
AcDbEntity
  8
Layer 1
 62
     1
420
 16711680
370
    35
100
AcDb2dPolyline
 66
     1
 10
0.0
 20
0.0
 30
0.0
  0
VERTEX
  5
70
330
6F
100
AcDbEntity
  8
Layer 1
 62
     1
420
 16711680
370
    35
100
AcDbVertex
100
AcDb2dVertex
 10
277.9612090855088
 20
-75.71388363468579
 30
0.0
  0
VERTEX
  5
71
330
6F
100
AcDbEntity
  8
Layer 1
 62
     1
420
 16711680
370
    35
100
AcDbVertex
100
AcDb2dVertex
 10
269.961209537855
 20
-75.71388363468579
 30
0.0
  0
SEQEND
  5
72
330
6F
100
AcDbEntity
  8
Layer 1
 62
     1
420
 16711680
370
    35
  0
SPLINE
  5
73
330
1F
100
AcDbEntity
  8
Layer 1
 62
     7
420
 16777215
370
    35
100
AcDbSpline
210
0.0
220
0.0
230
1.0
 70
    11
 71
     3
 72
    17
 73
    13
 74
     0
 42
0.0000000001
 43
0.0000000001
 12
1.0
 22
0.0
 32
0.0
 13
1.0
 23
0.0
 33
0.0
 40
0.0
 40
0.0
 40
0.0
 40
0.0
 40
1.0
 40
1.0
 40
1.0
 40
2.0
 40
2.0
 40
2.0
 40
3.0
 40
3.0
 40
3.0
 40
4.0
 40
4.0
 40
4.0
 40
4.0
 10
275.461209226867
 20
-79.21388343678433
 30
0.0
 10
275.461209226867
 20
-80.04231356572342
 30
0.0
 10
274.789639440621
 20
-80.71388335196941
 30
0.0
 10
273.9612093116819
 20
-80.71388335196941
 30
0.0
 10
273.1327791827428
 20
-80.71388335196941
 30
0.0
 10
272.4612093964968
 20
-80.04231356572342
 30
0.0
 10
272.4612093964968
 20
-79.21388343678433
 30
0.0
 10
272.4612093964968
 20
-78.38545330784522
 30
0.0
 10
273.1327791827428
 20
-77.71388352159924
 30
0.0
 10
273.9612093116819
 20
-77.71388352159924
 30
0.0
 10
274.789639440621
 20
-77.71388352159924
 30
0.0
 10
275.461209226867
 20
-78.38545330784522
 30
0.0
 10
275.461209226867
 20
-79.21388343678433
 30
0.0
  0
SPLINE
  5
74
330
1F
100
AcDbEntity
  8
Layer 1
 62
     7
420
 16777215
370
    35
100
AcDbSpline
210
0.0
220
0.0
230
1.0
 70
    11
 71
     3
 72
    17
 73
    13
 74
     0
 42
0.0000000001
 43
0.0000000001
 12
1.0
 22
0.0
 32
0.0
 13
1.0
 23
0.0
 33
0.0
 40
0.0
 40
0.0
 40
0.0
 40
0.0
 40
1.0
 40
1.0
 40
1.0
 40
2.0
 40
2.0
 40
2.0
 40
3.0
 40
3.0
 40
3.0
 40
4.0
 40
4.0
 40
4.0
 40
4.0
 10
275.461209226867
 20
-94.21388258863519
 30
0.0
 10
275.461209226867
 20
-95.04231271757429
 30
0.0
 10
274.789639440621
 20
-95.71388250382027
 30
0.0
 10
273.9612093116819
 20
-95.71388250382027
 30
0.0
 10
273.1327791827428
 20
-95.71388250382027
 30
0.0
 10
272.4612093964968
 20
-95.04231271757429
 30
0.0
 10
272.4612093964968
 20
-94.21388258863519
 30
0.0
 10
272.4612093964968
 20
-93.3854524596961
 30
0.0
 10
273.1327791827428
 20
-92.7138826734501
 30
0.0
 10
273.9612093116819
 20
-92.7138826734501
 30
0.0
 10
274.789639440621
 20
-92.7138826734501
 30
0.0
 10
275.461209226867
 20
-93.3854524596961
 30
0.0
 10
275.461209226867
 20
-94.21388258863519
 30
0.0
  0
POLYLINE
  5
75
330
1F
100
AcDbEntity
  8
Layer 1
 62
     1
420
 16711680
370
    35
100
AcDb2dPolyline
 66
     1
 10
0.0
 20
0.0
 30
0.0
  0
VERTEX
  5
76
330
75
100
AcDbEntity
  8
Layer 1
 62
     1
420
 16711680
370
    35
100
AcDbVertex
100
AcDb2dVertex
 10
269.961209537855
 20
-97.71388239073373
 30
0.0
  0
VERTEX
  5
77
330
75
100
AcDbEntity
  8
Layer 1
 62
     1
420
 16711680
370
    35
100
AcDbVertex
100
AcDb2dVertex
 10
269.961209537855
 20
-75.71388363468579
 30
0.0
  0
SEQEND
  5
78
330
75
100
AcDbEntity
  8
Layer 1
 62
     1
420
 16711680
370
    35
  0
POLYLINE
  5
79
330
1F
100
AcDbEntity
  8
Layer 1
 62
     1
420
 16711680
370
    35
100
AcDb2dPolyline
 66
     1
 10
0.0
 20
0.0
 30
0.0
  0
VERTEX
  5
7A
330
79
100
AcDbEntity
  8
Layer 1
 62
     1
420
 16711680
370
    35
100
AcDbVertex
100
AcDb2dVertex
 10
285.9612086331626
 20
-75.71388363468579
 30
0.0
  0
VERTEX
  5
7B
330
79
100
AcDbEntity
  8
Layer 1
 62
     1
420
 16711680
370
    35
100
AcDbVertex
100
AcDb2dVertex
 10
277.9612090855088
 20
-75.71388363468579
 30
0.0
  0
SEQEND
  5
7C
330
79
100
AcDbEntity
  8
Layer 1
 62
     1
420
 16711680
370
    35
  0
SPLINE
  5
7D
330
1F
100
AcDbEntity
  8
Layer 1
 62
     7
420
 16777215
370
    35
100
AcDbSpline
210
0.0
220
0.0
230
1.0
 70
    11
 71
     3
 72
    17
 73
    13
 74
     0
 42
0.0000000001
 43
0.0000000001
 12
1.0
 22
0.0
 32
0.0
 13
1.0
 23
0.0
 33
0.0
 40
0.0
 40
0.0
 40
0.0
 40
0.0
 40
1.0
 40
1.0
 40
1.0
 40
2.0
 40
2.0
 40
2.0
 40
3.0
 40
3.0
 40
3.0
 40
4.0
 40
4.0
 40
4.0
 40
4.0
 10
197.5405152992755
 20
-89.77942628666166
 30
0.0
 10
198.3689454282126
 20
-89.77942628666166
 30
0.0
 10
199.0405152144606
 20
-90.45099607290766
 30
0.0
 10
199.0405152144606
 20
-91.27942620184675
 30
0.0
 10
199.0405152144606
 20
-92.10785633078584
 30
0.0
 10
198.3689454282126
 20
-92.77942611703183
 30
0.0
 10
197.5405152992755
 20
-92.77942611703183
 30
0.0
 10
196.7120851703383
 20
-92.77942611703183
 30
0.0
 10
196.0405153840904
 20
-92.10785633078584
 30
0.0
 10
196.0405153840904
 20
-91.27942620184675
 30
0.0
 10
196.0405153840904
 20
-90.45099607290766
 30
0.0
 10
196.7120851703383
 20
-89.77942628666166
 30
0.0
 10
197.5405152992755
 20
-89.77942628666166
 30
0.0
  0
SPLINE
  5
7E
330
1F
100
AcDbEntity
  8
Layer 1
 62
     7
420
 16777215
370
    35
100
AcDbSpline
210
0.0
220
0.0
230
1.0
 70
    11
 71
     3
 72
    17
 73
    13
 74
     0
 42
0.0000000001
 43
0.0000000001
 12
1.0
 22
0.0
 32
0.0
 13
1.0
 23
0.0
 33
0.0
 40
0.0
 40
0.0
 40
0.0
 40
0.0
 40
1.0
 40
1.0
 40
1.0
 40
2.0
 40
2.0
 40
2.0
 40
3.0
 40
3.0
 40
3.0
 40
4.0
 40
4.0
 40
4.0
 40
4.0
 10
182.540516147424
 20
-89.77942628666166
 30
0.0
 10
183.3689424616657
 20
-89.77942628666166
 30
0.0
 10
184.040516062609
 20
-90.45099607290766
 30
0.0
 10
184.040516062609
 20
-91.27942620184675
 30
0.0
 10
184.040516062609
 20
-92.10785633078584
 30
0.0
 10
183.3689424616657
 20
-92.77942611703183
 30
0.0
 10
182.540516147424
 20
-92.77942611703183
 30
0.0
 10
181.7120898331816
 20
-92.77942611703183
 30
0.0
 10
181.0405162322389
 20
-92.10785633078584
 30
0.0
 10
181.0405162322389
 20
-91.27942620184675
 30
0.0
 10
181.0405162322389
 20
-90.45099607290766
 30
0.0
 10
181.7120898331816
 20
-89.77942628666166
 30
0.0
 10
182.540516147424
 20
-89.77942628666166
 30
0.0
  0
POLYLINE
  5
7F
330
1F
100
AcDbEntity
  8
Layer 1
 62
     1
420
 16711680
370
    35
100
AcDb2dPolyline
 66
     1
 10
0.0
 20
0.0
 30
0.0
  0
VERTEX
  5
80
330
7F
100
AcDbEntity
  8
Layer 1
 62
     1
420
 16711680
370
    35
100
AcDbVertex
100
AcDb2dVertex
 10
179.0405163453248
 20
-87.27942642801985
 30
0.0
  0
VERTEX
  5
81
330
7F
100
AcDbEntity
  8
Layer 1
 62
     1
420
 16711680
370
    35
100
AcDbVertex
100
AcDb2dVertex
 10
179.0405163453248
 20
-95.27942597567365
 30
0.0
  0
SEQEND
  5
82
330
7F
100
AcDbEntity
  8
Layer 1
 62
     1
420
 16711680
370
    35
  0
POLYLINE
  5
83
330
1F
100
AcDbEntity
  8
Layer 1
 62
     1
420
 16711680
370
    35
100
AcDb2dPolyline
 66
     1
 10
0.0
 20
0.0
 30
0.0
  0
VERTEX
  5
84
330
83
100
AcDbEntity
  8
Layer 1
 62
     1
420
 16711680
370
    35
100
AcDbVertex
100
AcDb2dVertex
 10
201.040515101374
 20
-87.27942642801985
 30
0.0
  0
VERTEX
  5
85
330
83
100
AcDbEntity
  8
Layer 1
 62
     1
420
 16711680
370
    35
100
AcDbVertex
100
AcDb2dVertex
 10
201.040515101374
 20
-95.27942597567365
 30
0.0
  0
SEQEND
  5
86
330
83
100
AcDbEntity
  8
Layer 1
 62
     1
420
 16711680
370
    35
  0
POLYLINE
  5
87
330
1F
100
AcDbEntity
  8
Layer 1
 62
     1
420
 16711680
370
    35
100
AcDb2dPolyline
 66
     1
 10
0.0
 20
0.0
 30
0.0
  0
VERTEX
  5
88
330
87
100
AcDbEntity
  8
Layer 1
 62
     1
420
 16711680
370
    35
100
AcDbVertex
100
AcDb2dVertex
 10
179.0405142442481
 20
-95.27942324481621
 30
0.0
  0
VERTEX
  5
89
330
87
100
AcDbEntity
  8
Layer 1
 62
     1
420
 16711680
370
    35
100
AcDbVertex
100
AcDb2dVertex
 10
160.0405219631637
 20
-131.2794222185636
 30
0.0
  0
SEQEND
  5
8A
330
87
100
AcDbEntity
  8
Layer 1
 62
     1
420
 16711680
370
    35
  0
POLYLINE
  5
8B
330
1F
100
AcDbEntity
  8
Layer 1
 62
     1
420
 16711680
370
    35
100
AcDb2dPolyline
 66
     1
 10
0.0
 20
0.0
 30
0.0
  0
VERTEX
  5
8C
330
8B
100
AcDbEntity
  8
Layer 1
 62
     1
420
 16711680
370
    35
100
AcDbVertex
100
AcDb2dVertex
 10
201.040515101374
 20
-95.27942597567365
 30
0.0
  0
VERTEX
  5
8D
330
8B
100
AcDbEntity
  8
Layer 1
 62
     1
420
 16711680
370
    35
100
AcDbVertex
100
AcDb2dVertex
 10
220.0405140270531
 20
-131.2794239401157
 30
0.0
  0
SEQEND
  5
8E
330
8B
100
AcDbEntity
  8
Layer 1
 62
     1
420
 16711680
370
    35
  0
POLYLINE
  5
8F
330
1F
100
AcDbEntity
  8
Layer 1
 62
     7
420
 16777215
370
    35
100
AcDb2dPolyline
 66
     1
 10
0.0
 20
0.0
 30
0.0
  0
VERTEX
  5
90
330
8F
100
AcDbEntity
  8
Layer 1
 62
     7
420
 16777215
370
    35
100
AcDbVertex
100
AcDb2dVertex
 10
188.0863150892187
 20
-95.27942597567365
 30
0.0
  0
VERTEX
  5
91
330
8F
100
AcDbEntity
  8
Layer 1
 62
     7
420
 16777215
370
    35
100
AcDbVertex
100
AcDb2dVertex
 10
169.0863161635403
 20
-131.2794239401157
 30
0.0
  0
SEQEND
  5
92
330
8F
100
AcDbEntity
  8
Layer 1
 62
     7
420
 16777215
370
    35
  0
POLYLINE
  5
93
330
1F
100
AcDbEntity
  8
Layer 1
 62
     7
420
 16777215
370
    35
100
AcDb2dPolyline
 66
     1
 10
0.0
 20
0.0
 30
0.0
  0
VERTEX
  5
94
330
93
100
AcDbEntity
  8
Layer 1
 62
     7
420
 16777215
370
    35
100
AcDbVertex
100
AcDb2dVertex
 10
191.9947163574801
 20
-95.27942597567365
 30
0.0
  0
VERTEX
  5
95
330
93
100
AcDbEntity
  8
Layer 1
 62
     7
420
 16777215
370
    35
100
AcDbVertex
100
AcDb2dVertex
 10
210.9947152831592
 20
-131.2794239401157
 30
0.0
  0
SEQEND
  5
96
330
93
100
AcDbEntity
  8
Layer 1
 62
     7
420
 16777215
370
    35
  0
POLYLINE
  5
97
330
1F
100
AcDbEntity
  8
Layer 1
 62
     7
420
 16777215
370
    35
100
AcDb2dPolyline
 66
     1
 10
0.0
 20
0.0
 30
0.0
  0
VERTEX
  5
98
330
97
100
AcDbEntity
  8
Layer 1
 62
     7
420
 16777215
370
    35
100
AcDbVertex
100
AcDb2dVertex
 10
191.9947163574801
 20
-95.27942597567365
 30
0.0
  0
VERTEX
  5
99
330
97
100
AcDbEntity
  8
Layer 1
 62
     7
420
 16777215
370
    35
100
AcDbVertex
100
AcDb2dVertex
 10
188.0863150892187
 20
-95.27942597567365
 30
0.0
  0
SEQEND
  5
9A
330
97
100
AcDbEntity
  8
Layer 1
 62
     7
420
 16777215
370
    35
  0
POLYLINE
  5
9B
330
1F
100
AcDbEntity
  8
Layer 1
 62
     1
420
 16711680
370
    35
100
AcDb2dPolyline
 66
     1
 10
0.0
 20
0.0
 30
0.0
  0
VERTEX
  5
9C
330
9B
100
AcDbEntity
  8
Layer 1
 62
     1
420
 16711680
370
    35
100
AcDbVertex
100
AcDb2dVertex
 10
179.0405163453248
 20
-87.36244946523496
 30
0.0
  0
VERTEX
  5
9D
330
9B
100
AcDbEntity
  8
Layer 1
 62
     1
420
 16711680
370
    35
100
AcDbVertex
100
AcDb2dVertex
 10
201.040515101374
 20
-87.36244946523496
 30
0.0
  0
SEQEND
  5
9E
330
9B
100
AcDbEntity
  8
Layer 1
 62
     1
420
 16711680
370
    35
  0
POLYLINE
  5
9F
330
1F
100
AcDbEntity
  8
Layer 1
 62
     7
420
 16777215
370
    35
100
AcDb2dPolyline
 66
     1
 10
0.0
 20
0.0
 30
0.0
  0
VERTEX
  5
A0
330
9F
100
AcDbEntity
  8
Layer 1
 62
     7
420
 16777215
370
    35
100
AcDbVertex
100
AcDb2dVertex
 10
169.0863161635403
 20
-131.2794239401157
 30
0.0
  0
VERTEX
  5
A1
330
9F
100
AcDbEntity
  8
Layer 1
 62
     7
420
 16777215
370
    35
100
AcDbVertex
100
AcDb2dVertex
 10
210.9947152831592
 20
-131.2794239401157
 30
0.0
  0
SEQEND
  5
A2
330
9F
100
AcDbEntity
  8
Layer 1
 62
     7
420
 16777215
370
    35
  0
POLYLINE
  5
A3
330
1F
100
AcDbEntity
  8
Layer 1
 62
     1
420
 16711680
370
    35
100
AcDb2dPolyline
 66
     1
 10
0.0
 20
0.0
 30
0.0
  0
VERTEX
  5
A4
330
A3
100
AcDbEntity
  8
Layer 1
 62
     1
420
 16711680
370
    35
100
AcDbVertex
100
AcDb2dVertex
 10
159.9847221822261
 20
-131.4097221893698
 30
0.0
  0
VERTEX
  5
A5
330
A3
100
AcDbEntity
  8
Layer 1
 62
     1
420
 16711680
370
    35
100
AcDbVertex
100
AcDb2dVertex
 10
159.9847221822261
 20
-210.4319443918365
 30
0.0
  0
SEQEND
  5
A6
330
A3
100
AcDbEntity
  8
Layer 1
 62
     1
420
 16711680
370
    35
  0
POLYLINE
  5
A7
330
1F
100
AcDbEntity
  8
Layer 1
 62
     1
420
 16711680
370
    35
100
AcDb2dPolyline
 66
     1
 10
0.0
 20
0.0
 30
0.0
  0
VERTEX
  5
A8
330
A7
100
AcDbEntity
  8
Layer 1
 62
     1
420
 16711680
370
    35
100
AcDbVertex
100
AcDb2dVertex
 10
219.9569443894552
 20
-131.4097221893698
 30
0.0
  0
VERTEX
  5
A9
330
A7
100
AcDbEntity
  8
Layer 1
 62
     1
420
 16711680
370
    35
100
AcDbVertex
100
AcDb2dVertex
 10
219.9569443894552
 20
-210.4319443918365
 30
0.0
  0
SEQEND
  5
AA
330
A7
100
AcDbEntity
  8
Layer 1
 62
     1
420
 16711680
370
    35
  0
POLYLINE
  5
AB
330
1F
100
AcDbEntity
  8
Layer 1
 62
     1
420
 16711680
370
    35
100
AcDb2dPolyline
 66
     1
 10
0.0
 20
0.0
 30
0.0
  0
VERTEX
  5
AC
330
AB
100
AcDbEntity
  8
Layer 1
 62
     1
420
 16711680
370
    35
100
AcDbVertex
100
AcDb2dVertex
 10
159.9847221822261
 20
-210.4319443918365
 30
0.0
  0
VERTEX
  5
AD
330
AB
100
AcDbEntity
  8
Layer 1
 62
     1
420
 16711680
370
    35
100
AcDbVertex
100
AcDb2dVertex
 10
219.9569443894552
 20
-210.4319443918365
 30
0.0
  0
SEQEND
  5
AE
330
AB
100
AcDbEntity
  8
Layer 1
 62
     1
420
 16711680
370
    35
  0
SPLINE
  5
AF
330
1F
100
AcDbEntity
  8
Layer 1
 62
     7
420
 16777215
370
    35
100
AcDbSpline
210
0.0
220
0.0
230
1.0
 70
    11
 71
     3
 72
    17
 73
    13
 74
     0
 42
0.0000000001
 43
0.0000000001
 12
1.0
 22
0.0
 32
0.0
 13
1.0
 23
0.0
 33
0.0
 40
0.0
 40
0.0
 40
0.0
 40
0.0
 40
1.0
 40
1.0
 40
1.0
 40
2.0
 40
2.0
 40
2.0
 40
3.0
 40
3.0
 40
3.0
 40
4.0
 40
4.0
 40
4.0
 40
4.0
 10
171.0389870307503
 20
-137.9583270221435
 30
0.0
 10
171.0389870307503
 20
-138.7867571510826
 30
0.0
 10
170.3674172445043
 20
-139.4583269373286
 30
0.0
 10
169.5389871155652
 20
-139.4583269373286
 30
0.0
 10
168.7105569866262
 20
-139.4583269373286
 30
0.0
 10
168.0389872003802
 20
-138.7867571510826
 30
0.0
 10
168.0389872003802
 20
-137.9583270221435
 30
0.0
 10
168.0389872003802
 20
-137.1298968932044
 30
0.0
 10
168.7105569866262
 20
-136.4583271069584
 30
0.0
 10
169.5389871155652
 20
-136.4583271069584
 30
0.0
 10
170.3674172445043
 20
-136.4583271069584
 30
0.0
 10
171.0389870307503
 20
-137.1298968932044
 30
0.0
 10
171.0389870307503
 20
-137.9583270221435
 30
0.0
  0
SPLINE
  5
B0
330
1F
100
AcDbEntity
  8
Layer 1
 62
     7
420
 16777215
370
    35
100
AcDbSpline
210
0.0
220
0.0
230
1.0
 70
    11
 71
     3
 72
    17
 73
    13
 74
     0
 42
0.0000000001
 43
0.0000000001
 12
1.0
 22
0.0
 32
0.0
 13
1.0
 23
0.0
 33
0.0
 40
0.0
 40
0.0
 40
0.0
 40
0.0
 40
1.0
 40
1.0
 40
1.0
 40
2.0
 40
2.0
 40
2.0
 40
3.0
 40
3.0
 40
3.0
 40
4.0
 40
4.0
 40
4.0
 40
4.0
 10
212.6667647981212
 20
-137.9583270221435
 30
0.0
 10
212.6667647981212
 20
-138.7867571510826
 30
0.0
 10
211.9951950118752
 20
-139.4583269373286
 30
0.0
 10
211.1667648829361
 20
-139.4583269373286
 30
0.0
 10
210.338334753997
 20
-139.4583269373286
 30
0.0
 10
209.666764967751
 20
-138.7867571510826
 30
0.0
 10
209.666764967751
 20
-137.9583270221435
 30
0.0
 10
209.666764967751
 20
-137.1298968932044
 30
0.0
 10
210.338334753997
 20
-136.4583271069584
 30
0.0
 10
211.1667648829361
 20
-136.4583271069584
 30
0.0
 10
211.9951950118752
 20
-136.4583271069584
 30
0.0
 10
212.6667647981212
 20
-137.1298968932044
 30
0.0
 10
212.6667647981212
 20
-137.9583270221435
 30
0.0
  0
SPLINE
  5
B1
330
1F
100
AcDbEntity
  8
Layer 1
 62
     7
420
 16777215
370
    35
100
AcDbSpline
210
0.0
220
0.0
230
1.0
 70
    11
 71
     3
 72
    17
 73
    13
 74
     0
 42
0.0000000001
 43
0.0000000001
 12
1.0
 22
0.0
 32
0.0
 13
1.0
 23
0.0
 33
0.0
 40
0.0
 40
0.0
 40
0.0
 40
0.0
 40
1.0
 40
1.0
 40
1.0
 40
2.0
 40
2.0
 40
2.0
 40
3.0
 40
3.0
 40
3.0
 40
4.0
 40
4.0
 40
4.0
 40
4.0
 10
259.6294041726421
 20
-89.0738707312825
 30
0.0
 10
260.4578343015793
 20
-89.0738707312825
 30
0.0
 10
261.1294040878273
 20
-89.74544051752848
 30
0.0
 10
261.1294040878273
 20
-90.57387064646758
 30
0.0
 10
261.1294040878273
 20
-91.40230077540667
 30
0.0
 10
260.4578343015793
 20
-92.07387056165267
 30
0.0
 10
259.6294041726421
 20
-92.07387056165267
 30
0.0
 10
258.800974043705
 20
-92.07387056165267
 30
0.0
 10
258.1294042574571
 20
-91.40230077540667
 30
0.0
 10
258.1294042574571
 20
-90.57387064646758
 30
0.0
 10
258.1294042574571
 20
-89.74544051752848
 30
0.0
 10
258.800974043705
 20
-89.0738707312825
 30
0.0
 10
259.6294041726421
 20
-89.0738707312825
 30
0.0
  0
SPLINE
  5
B2
330
1F
100
AcDbEntity
  8
Layer 1
 62
     7
420
 16777215
370
    35
100
AcDbSpline
210
0.0
220
0.0
230
1.0
 70
    11
 71
     3
 72
    17
 73
    13
 74
     0
 42
0.0000000001
 43
0.0000000001
 12
1.0
 22
0.0
 32
0.0
 13
1.0
 23
0.0
 33
0.0
 40
0.0
 40
0.0
 40
0.0
 40
0.0
 40
1.0
 40
1.0
 40
1.0
 40
2.0
 40
2.0
 40
2.0
 40
3.0
 40
3.0
 40
3.0
 40
4.0
 40
4.0
 40
4.0
 40
4.0
 10
244.6294050207906
 20
-89.0738707312825
 30
0.0
 10
245.4578313350324
 20
-89.0738707312825
 30
0.0
 10
246.1294049359757
 20
-89.74544051752848
 30
0.0
 10
246.1294049359757
 20
-90.57387064646758
 30
0.0
 10
246.1294049359757
 20
-91.40230077540667
 30
0.0
 10
245.4578313350324
 20
-92.07387056165267
 30
0.0
 10
244.6294050207906
 20
-92.07387056165267
 30
0.0
 10
243.8009787065483
 20
-92.07387056165267
 30
0.0
 10
243.1294051056055
 20
-91.40230077540667
 30
0.0
 10
243.1294051056055
 20
-90.57387064646758
 30
0.0
 10
243.1294051056055
 20
-89.74544051752848
 30
0.0
 10
243.8009787065483
 20
-89.0738707312825
 30
0.0
 10
244.6294050207906
 20
-89.0738707312825
 30
0.0
  0
POLYLINE
  5
B3
330
1F
100
AcDbEntity
  8
Layer 1
 62
     1
420
 16711680
370
    35
100
AcDb2dPolyline
 66
     1
 10
0.0
 20
0.0
 30
0.0
  0
VERTEX
  5
B4
330
B3
100
AcDbEntity
  8
Layer 1
 62
     1
420
 16711680
370
    35
100
AcDbVertex
100
AcDb2dVertex
 10
241.1294052186915
 20
-86.57387087264068
 30
0.0
  0
VERTEX
  5
B5
330
B3
100
AcDbEntity
  8
Layer 1
 62
     1
420
 16711680
370
    35
100
AcDbVertex
100
AcDb2dVertex
 10
241.1294052186915
 20
-94.57387042029447
 30
0.0
  0
SEQEND
  5
B6
330
B3
100
AcDbEntity
  8
Layer 1
 62
     1
420
 16711680
370
    35
  0
POLYLINE
  5
B7
330
1F
100
AcDbEntity
  8
Layer 1
 62
     1
420
 16711680
370
    35
100
AcDb2dPolyline
 66
     1
 10
0.0
 20
0.0
 30
0.0
  0
VERTEX
  5
B8
330
B7
100
AcDbEntity
  8
Layer 1
 62
     1
420
 16711680
370
    35
100
AcDbVertex
100
AcDb2dVertex
 10
263.1294039747407
 20
-86.57387087264068
 30
0.0
  0
VERTEX
  5
B9
330
B7
100
AcDbEntity
  8
Layer 1
 62
     1
420
 16711680
370
    35
100
AcDbVertex
100
AcDb2dVertex
 10
263.1294039747407
 20
-94.57387042029447
 30
0.0
  0
SEQEND
  5
BA
330
B7
100
AcDbEntity
  8
Layer 1
 62
     1
420
 16711680
370
    35
  0
POLYLINE
  5
BB
330
1F
100
AcDbEntity
  8
Layer 1
 62
     1
420
 16711680
370
    35
100
AcDb2dPolyline
 66
     1
 10
0.0
 20
0.0
 30
0.0
  0
VERTEX
  5
BC
330
BB
100
AcDbEntity
  8
Layer 1
 62
     1
420
 16711680
370
    35
100
AcDbVertex
100
AcDb2dVertex
 10
241.1294031176148
 20
-94.57386768943705
 30
0.0
  0
VERTEX
  5
BD
330
BB
100
AcDbEntity
  8
Layer 1
 62
     1
420
 16711680
370
    35
100
AcDbVertex
100
AcDb2dVertex
 10
222.1294108365304
 20
-130.5738666631844
 30
0.0
  0
SEQEND
  5
BE
330
BB
100
AcDbEntity
  8
Layer 1
 62
     1
420
 16711680
370
    35
  0
POLYLINE
  5
BF
330
1F
100
AcDbEntity
  8
Layer 1
 62
     1
420
 16711680
370
    35
100
AcDb2dPolyline
 66
     1
 10
0.0
 20
0.0
 30
0.0
  0
VERTEX
  5
C0
330
BF
100
AcDbEntity
  8
Layer 1
 62
     1
420
 16711680
370
    35
100
AcDbVertex
100
AcDb2dVertex
 10
263.1294039747407
 20
-94.57387042029447
 30
0.0
  0
VERTEX
  5
C1
330
BF
100
AcDbEntity
  8
Layer 1
 62
     1
420
 16711680
370
    35
100
AcDbVertex
100
AcDb2dVertex
 10
282.1294029004197
 20
-130.5738683847366
 30
0.0
  0
SEQEND
  5
C2
330
BF
100
AcDbEntity
  8
Layer 1
 62
     1
420
 16711680
370
    35
  0
POLYLINE
  5
C3
330
1F
100
AcDbEntity
  8
Layer 1
 62
     7
420
 16777215
370
    35
100
AcDb2dPolyline
 66
     1
 10
0.0
 20
0.0
 30
0.0
  0
VERTEX
  5
C4
330
C3
100
AcDbEntity
  8
Layer 1
 62
     7
420
 16777215
370
    35
100
AcDbVertex
100
AcDb2dVertex
 10
250.1752039625854
 20
-94.57387042029447
 30
0.0
  0
VERTEX
  5
C5
330
C3
100
AcDbEntity
  8
Layer 1
 62
     7
420
 16777215
370
    35
100
AcDbVertex
100
AcDb2dVertex
 10
231.1752050369073
 20
-130.5738683847366
 30
0.0
  0
SEQEND
  5
C6
330
C3
100
AcDbEntity
  8
Layer 1
 62
     7
420
 16777215
370
    35
  0
POLYLINE
  5
C7
330
1F
100
AcDbEntity
  8
Layer 1
 62
     7
420
 16777215
370
    35
100
AcDb2dPolyline
 66
     1
 10
0.0
 20
0.0
 30
0.0
  0
VERTEX
  5
C8
330
C7
100
AcDbEntity
  8
Layer 1
 62
     7
420
 16777215
370
    35
100
AcDbVertex
100
AcDb2dVertex
 10
254.0836052308468
 20
-94.57387042029447
 30
0.0
  0
VERTEX
  5
C9
330
C7
100
AcDbEntity
  8
Layer 1
 62
     7
420
 16777215
370
    35
100
AcDbVertex
100
AcDb2dVertex
 10
273.0836041565258
 20
-130.5738683847366
 30
0.0
  0
SEQEND
  5
CA
330
C7
100
AcDbEntity
  8
Layer 1
 62
     7
420
 16777215
370
    35
  0
POLYLINE
  5
CB
330
1F
100
AcDbEntity
  8
Layer 1
 62
     7
420
 16777215
370
    35
100
AcDb2dPolyline
 66
     1
 10
0.0
 20
0.0
 30
0.0
  0
VERTEX
  5
CC
330
CB
100
AcDbEntity
  8
Layer 1
 62
     7
420
 16777215
370
    35
100
AcDbVertex
100
AcDb2dVertex
 10
254.0836052308468
 20
-94.57387042029447
 30
0.0
  0
VERTEX
  5
CD
330
CB
100
AcDbEntity
  8
Layer 1
 62
     7
420
 16777215
370
    35
100
AcDbVertex
100
AcDb2dVertex
 10
250.1752039625854
 20
-94.57387042029447
 30
0.0
  0
SEQEND
  5
CE
330
CB
100
AcDbEntity
  8
Layer 1
 62
     7
420
 16777215
370
    35
  0
POLYLINE
  5
CF
330
1F
100
AcDbEntity
  8
Layer 1
 62
     1
420
 16711680
370
    35
100
AcDb2dPolyline
 66
     1
 10
0.0
 20
0.0
 30
0.0
  0
VERTEX
  5
D0
330
CF
100
AcDbEntity
  8
Layer 1
 62
     1
420
 16711680
370
    35
100
AcDbVertex
100
AcDb2dVertex
 10
241.1294052186915
 20
-86.6568939098558
 30
0.0
  0
VERTEX
  5
D1
330
CF
100
AcDbEntity
  8
Layer 1
 62
     1
420
 16711680
370
    35
100
AcDbVertex
100
AcDb2dVertex
 10
263.1294039747407
 20
-86.6568939098558
 30
0.0
  0
SEQEND
  5
D2
330
CF
100
AcDbEntity
  8
Layer 1
 62
     1
420
 16711680
370
    35
  0
POLYLINE
  5
D3
330
1F
100
AcDbEntity
  8
Layer 1
 62
     7
420
 16777215
370
    35
100
AcDb2dPolyline
 66
     1
 10
0.0
 20
0.0
 30
0.0
  0
VERTEX
  5
D4
330
D3
100
AcDbEntity
  8
Layer 1
 62
     7
420
 16777215
370
    35
100
AcDbVertex
100
AcDb2dVertex
 10
231.1752050369073
 20
-130.5738683847366
 30
0.0
  0
VERTEX
  5
D5
330
D3
100
AcDbEntity
  8
Layer 1
 62
     7
420
 16777215
370
    35
100
AcDbVertex
100
AcDb2dVertex
 10
273.0836041565258
 20
-130.5738683847366
 30
0.0
  0
SEQEND
  5
D6
330
D3
100
AcDbEntity
  8
Layer 1
 62
     7
420
 16777215
370
    35
  0
POLYLINE
  5
D7
330
1F
100
AcDbEntity
  8
Layer 1
 62
     1
420
 16711680
370
    35
100
AcDb2dPolyline
 66
     1
 10
0.0
 20
0.0
 30
0.0
  0
VERTEX
  5
D8
330
D7
100
AcDbEntity
  8
Layer 1
 62
     1
420
 16711680
370
    35
100
AcDbVertex
100
AcDb2dVertex
 10
222.0736110555927
 20
-130.7041666339906
 30
0.0
  0
VERTEX
  5
D9
330
D7
100
AcDbEntity
  8
Layer 1
 62
     1
420
 16711680
370
    35
100
AcDbVertex
100
AcDb2dVertex
 10
222.0736110555927
 20
-209.7263888364573
 30
0.0
  0
SEQEND
  5
DA
330
D7
100
AcDbEntity
  8
Layer 1
 62
     1
420
 16711680
370
    35
  0
POLYLINE
  5
DB
330
1F
100
AcDbEntity
  8
Layer 1
 62
     1
420
 16711680
370
    35
100
AcDb2dPolyline
 66
     1
 10
0.0
 20
0.0
 30
0.0
  0
VERTEX
  5
DC
330
DB
100
AcDbEntity
  8
Layer 1
 62
     1
420
 16711680
370
    35
100
AcDbVertex
100
AcDb2dVertex
 10
282.0458332628219
 20
-130.7041666339906
 30
0.0
  0
VERTEX
  5
DD
330
DB
100
AcDbEntity
  8
Layer 1
 62
     1
420
 16711680
370
    35
100
AcDbVertex
100
AcDb2dVertex
 10
282.0458332628219
 20
-209.7263888364573
 30
0.0
  0
SEQEND
  5
DE
330
DB
100
AcDbEntity
  8
Layer 1
 62
     1
420
 16711680
370
    35
  0
POLYLINE
  5
DF
330
1F
100
AcDbEntity
  8
Layer 1
 62
     1
420
 16711680
370
    35
100
AcDb2dPolyline
 66
     1
 10
0.0
 20
0.0
 30
0.0
  0
VERTEX
  5
E0
330
DF
100
AcDbEntity
  8
Layer 1
 62
     1
420
 16711680
370
    35
100
AcDbVertex
100
AcDb2dVertex
 10
222.0736110555927
 20
-209.7263888364573
 30
0.0
  0
VERTEX
  5
E1
330
DF
100
AcDbEntity
  8
Layer 1
 62
     1
420
 16711680
370
    35
100
AcDbVertex
100
AcDb2dVertex
 10
282.0458332628219
 20
-209.7263888364573
 30
0.0
  0
SEQEND
  5
E2
330
DF
100
AcDbEntity
  8
Layer 1
 62
     1
420
 16711680
370
    35
  0
SPLINE
  5
E3
330
1F
100
AcDbEntity
  8
Layer 1
 62
     7
420
 16777215
370
    35
100
AcDbSpline
210
0.0
220
0.0
230
1.0
 70
    11
 71
     3
 72
    17
 73
    13
 74
     0
 42
0.0000000001
 43
0.0000000001
 12
1.0
 22
0.0
 32
0.0
 13
1.0
 23
0.0
 33
0.0
 40
0.0
 40
0.0
 40
0.0
 40
0.0
 40
1.0
 40
1.0
 40
1.0
 40
2.0
 40
2.0
 40
2.0
 40
3.0
 40
3.0
 40
3.0
 40
4.0
 40
4.0
 40
4.0
 40
4.0
 10
233.127875904117
 20
-137.2527714667644
 30
0.0
 10
233.127875904117
 20
-138.0812015957034
 30
0.0
 10
232.456306117871
 20
-138.7527713819495
 30
0.0
 10
231.6278759889319
 20
-138.7527713819495
 30
0.0
 10
230.7994458599928
 20
-138.7527713819495
 30
0.0
 10
230.1278760737468
 20
-138.0812015957034
 30
0.0
 10
230.1278760737468
 20
-137.2527714667644
 30
0.0
 10
230.1278760737468
 20
-136.4243413378253
 30
0.0
 10
230.7994458599928
 20
-135.7527715515793
 30
0.0
 10
231.6278759889319
 20
-135.7527715515793
 30
0.0
 10
232.456306117871
 20
-135.7527715515793
 30
0.0
 10
233.127875904117
 20
-136.4243413378253
 30
0.0
 10
233.127875904117
 20
-137.2527714667644
 30
0.0
  0
SPLINE
  5
E4
330
1F
100
AcDbEntity
  8
Layer 1
 62
     7
420
 16777215
370
    35
100
AcDbSpline
210
0.0
220
0.0
230
1.0
 70
    11
 71
     3
 72
    17
 73
    13
 74
     0
 42
0.0000000001
 43
0.0000000001
 12
1.0
 22
0.0
 32
0.0
 13
1.0
 23
0.0
 33
0.0
 40
0.0
 40
0.0
 40
0.0
 40
0.0
 40
1.0
 40
1.0
 40
1.0
 40
2.0
 40
2.0
 40
2.0
 40
3.0
 40
3.0
 40
3.0
 40
4.0
 40
4.0
 40
4.0
 40
4.0
 10
274.7556536714878
 20
-137.2527714667644
 30
0.0
 10
274.7556536714878
 20
-138.0812015957034
 30
0.0
 10
274.0840838852419
 20
-138.7527713819495
 30
0.0
 10
273.2556537563028
 20
-138.7527713819495
 30
0.0
 10
272.4272236273637
 20
-138.7527713819495
 30
0.0
 10
271.7556538411177
 20
-138.0812015957034
 30
0.0
 10
271.7556538411177
 20
-137.2527714667644
 30
0.0
 10
271.7556538411177
 20
-136.4243413378253
 30
0.0
 10
272.4272236273637
 20
-135.7527715515793
 30
0.0
 10
273.2556537563028
 20
-135.7527715515793
 30
0.0
 10
274.0840838852419
 20
-135.7527715515793
 30
0.0
 10
274.7556536714878
 20
-136.4243413378253
 30
0.0
 10
274.7556536714878
 20
-137.2527714667644
 30
0.0
  0
POLYLINE
  5
E5
330
1F
100
AcDbEntity
  8
Layer 1
 62
     1
420
 16711680
370
    35
100
AcDb2dPolyline
 66
     1
 10
0.0
 20
0.0
 30
0.0
  0
VERTEX
  5
E6
330
E5
100
AcDbEntity
  8
Layer 1
 62
     1
420
 16711680
370
    35
100
AcDbVertex
100
AcDb2dVertex
 10
326.7956057986508
 20
-95.279425941499
 30
0.0
  0
VERTEX
  5
E7
330
E5
100
AcDbEntity
  8
Layer 1
 62
     1
420
 16711680
370
    35
100
AcDbVertex
100
AcDb2dVertex
 10
308.9127441481679
 20
-129.1627555524261
 30
0.0
  0
SEQEND
  5
E8
330
E5
100
AcDbEntity
  8
Layer 1
 62
     1
420
 16711680
370
    35
  0
POLYLINE
  5
E9
330
1F
100
AcDbEntity
  8
Layer 1
 62
     1
420
 16711680
370
    35
100
AcDb2dPolyline
 66
     1
 10
0.0
 20
0.0
 30
0.0
  0
VERTEX
  5
EA
330
E9
100
AcDbEntity
  8
Layer 1
 62
     1
420
 16711680
370
    35
100
AcDbVertex
100
AcDb2dVertex
 10
351.0298751402674
 20
-95.27944155901076
 30
0.0
  0
VERTEX
  5
EB
330
E9
100
AcDbEntity
  8
Layer 1
 62
     1
420
 16711680
370
    35
100
AcDbVertex
100
AcDb2dVertex
 10
368.9127362120572
 20
-129.1627572739782
 30
0.0
  0
SEQEND
  5
EC
330
E9
100
AcDbEntity
  8
Layer 1
 62
     1
420
 16711680
370
    35
  0
POLYLINE
  5
ED
330
1F
100
AcDbEntity
  8
Layer 1
 62
     1
420
 16711680
370
    35
100
AcDb2dPolyline
 66
     1
 10
0.0
 20
0.0
 30
0.0
  0
VERTEX
  5
EE
330
ED
100
AcDbEntity
  8
Layer 1
 62
     1
420
 16711680
370
    35
100
AcDbVertex
100
AcDb2dVertex
 10
335.841407961093
 20
-95.2794253765186
 30
0.0
  0
VERTEX
  5
EF
330
ED
100
AcDbEntity
  8
Layer 1
 62
     1
420
 16711680
370
    35
100
AcDbVertex
100
AcDb2dVertex
 10
317.9585383485444
 20
-129.1627572739782
 30
0.0
  0
SEQEND
  5
F0
330
ED
100
AcDbEntity
  8
Layer 1
 62
     1
420
 16711680
370
    35
  0
POLYLINE
  5
F1
330
1F
100
AcDbEntity
  8
Layer 1
 62
     1
420
 16711680
370
    35
100
AcDb2dPolyline
 66
     1
 10
0.0
 20
0.0
 30
0.0
  0
VERTEX
  5
F2
330
F1
100
AcDbEntity
  8
Layer 1
 62
     1
420
 16711680
370
    35
100
AcDbVertex
100
AcDb2dVertex
 10
341.9840695637637
 20
-95.27942861301274
 30
0.0
  0
VERTEX
  5
F3
330
F1
100
AcDbEntity
  8
Layer 1
 62
     1
420
 16711680
370
    35
100
AcDbVertex
100
AcDb2dVertex
 10
359.8669374681633
 20
-129.1627572739782
 30
0.0
  0
SEQEND
  5
F4
330
F1
100
AcDbEntity
  8
Layer 1
 62
     1
420
 16711680
370
    35
  0
POLYLINE
  5
F5
330
1F
100
AcDbEntity
  8
Layer 1
 62
     1
420
 16711680
370
    35
100
AcDb2dPolyline
 66
     1
 10
0.0
 20
0.0
 30
0.0
  0
VERTEX
  5
F6
330
F5
100
AcDbEntity
  8
Layer 1
 62
     1
420
 16711680
370
    35
100
AcDbVertex
100
AcDb2dVertex
 10
317.9585383485444
 20
-129.1627572739782
 30
0.0
  0
VERTEX
  5
F7
330
F5
100
AcDbEntity
  8
Layer 1
 62
     1
420
 16711680
370
    35
100
AcDbVertex
100
AcDb2dVertex
 10
359.8669374681633
 20
-129.1627572739782
 30
0.0
  0
SEQEND
  5
F8
330
F5
100
AcDbEntity
  8
Layer 1
 62
     1
420
 16711680
370
    35
  0
POLYLINE
  5
F9
330
1F
100
AcDbEntity
  8
Layer 1
 62
     1
420
 16711680
370
    35
100
AcDb2dPolyline
 66
     1
 10
0.0
 20
0.0
 30
0.0
  0
VERTEX
  5
FA
330
F9
100
AcDbEntity
  8
Layer 1
 62
     1
420
 16711680
370
    35
100
AcDbVertex
100
AcDb2dVertex
 10
308.8569443672302
 20
-129.2930555232323
 30
0.0
  0
VERTEX
  5
FB
330
F9
100
AcDbEntity
  8
Layer 1
 62
     1
420
 16711680
370
    35
100
AcDbVertex
100
AcDb2dVertex
 10
308.8569443672302
 20
-208.315277725699
 30
0.0
  0
SEQEND
  5
FC
330
F9
100
AcDbEntity
  8
Layer 1
 62
     1
420
 16711680
370
    35
  0
POLYLINE
  5
FD
330
1F
100
AcDbEntity
  8
Layer 1
 62
     1
420
 16711680
370
    35
100
AcDb2dPolyline
 66
     1
 10
0.0
 20
0.0
 30
0.0
  0
VERTEX
  5
FE
330
FD
100
AcDbEntity
  8
Layer 1
 62
     1
420
 16711680
370
    35
100
AcDbVertex
100
AcDb2dVertex
 10
368.8291665744594
 20
-129.2930555232323
 30
0.0
  0
VERTEX
  5
FF
330
FD
100
AcDbEntity
  8
Layer 1
 62
     1
420
 16711680
370
    35
100
AcDbVertex
100
AcDb2dVertex
 10
368.8291665744594
 20
-208.315277725699
 30
0.0
  0
SEQEND
  5
100
330
FD
100
AcDbEntity
  8
Layer 1
 62
     1
420
 16711680
370
    35
  0
POLYLINE
  5
101
330
1F
100
AcDbEntity
  8
Layer 1
 62
     1
420
 16711680
370
    35
100
AcDb2dPolyline
 66
     1
 10
0.0
 20
0.0
 30
0.0
  0
VERTEX
  5
102
330
101
100
AcDbEntity
  8
Layer 1
 62
     1
420
 16711680
370
    35
100
AcDbVertex
100
AcDb2dVertex
 10
308.8569443672302
 20
-208.315277725699
 30
0.0
  0
VERTEX
  5
103
330
101
100
AcDbEntity
  8
Layer 1
 62
     1
420
 16711680
370
    35
100
AcDbVertex
100
AcDb2dVertex
 10
368.8291665744594
 20
-208.315277725699
 30
0.0
  0
SEQEND
  5
104
330
101
100
AcDbEntity
  8
Layer 1
 62
     1
420
 16711680
370
    35
  0
SPLINE
  5
105
330
1F
100
AcDbEntity
  8
Layer 1
 62
     7
420
 16777215
370
    35
100
AcDbSpline
210
0.0
220
0.0
230
1.0
 70
    11
 71
     3
 72
    17
 73
    13
 74
     0
 42
0.0000000001
 43
0.0000000001
 12
1.0
 22
0.0
 32
0.0
 13
1.0
 23
0.0
 33
0.0
 40
0.0
 40
0.0
 40
0.0
 40
0.0
 40
1.0
 40
1.0
 40
1.0
 40
2.0
 40
2.0
 40
2.0
 40
3.0
 40
3.0
 40
3.0
 40
4.0
 40
4.0
 40
4.0
 40
4.0
 10
319.9112092157545
 20
-135.841660356006
 30
0.0
 10
319.9112092157545
 20
-136.6700904849451
 30
0.0
 10
319.2396394295085
 20
-137.3416602711911
 30
0.0
 10
318.4112093005695
 20
-137.3416602711911
 30
0.0
 10
317.5827791716303
 20
-137.3416602711911
 30
0.0
 10
316.9112093853843
 20
-136.6700904849451
 30
0.0
 10
316.9112093853843
 20
-135.841660356006
 30
0.0
 10
316.9112093853843
 20
-135.0132302270669
 30
0.0
 10
317.5827791716303
 20
-134.3416604408209
 30
0.0
 10
318.4112093005695
 20
-134.3416604408209
 30
0.0
 10
319.2396394295085
 20
-134.3416604408209
 30
0.0
 10
319.9112092157545
 20
-135.0132302270669
 30
0.0
 10
319.9112092157545
 20
-135.841660356006
 30
0.0
  0
SPLINE
  5
106
330
1F
100
AcDbEntity
  8
Layer 1
 62
     7
420
 16777215
370
    35
100
AcDbSpline
210
0.0
220
0.0
230
1.0
 70
    11
 71
     3
 72
    17
 73
    13
 74
     0
 42
0.0000000001
 43
0.0000000001
 12
1.0
 22
0.0
 32
0.0
 13
1.0
 23
0.0
 33
0.0
 40
0.0
 40
0.0
 40
0.0
 40
0.0
 40
1.0
 40
1.0
 40
1.0
 40
2.0
 40
2.0
 40
2.0
 40
3.0
 40
3.0
 40
3.0
 40
4.0
 40
4.0
 40
4.0
 40
4.0
 10
361.5389869831254
 20
-135.841660356006
 30
0.0
 10
361.5389869831254
 20
-136.6700904849451
 30
0.0
 10
360.8674171968793
 20
-137.3416602711911
 30
0.0
 10
360.0389870679402
 20
-137.3416602711911
 30
0.0
 10
359.2105569390012
 20
-137.3416602711911
 30
0.0
 10
358.5389871527552
 20
-136.6700904849451
 30
0.0
 10
358.5389871527552
 20
-135.841660356006
 30
0.0
 10
358.5389871527552
 20
-135.0132302270669
 30
0.0
 10
359.2105569390012
 20
-134.3416604408209
 30
0.0
 10
360.0389870679402
 20
-134.3416604408209
 30
0.0
 10
360.8674171968793
 20
-134.3416604408209
 30
0.0
 10
361.5389869831254
 20
-135.0132302270669
 30
0.0
 10
361.5389869831254
 20
-135.841660356006
 30
0.0
  0
POLYLINE
  5
107
330
1F
100
AcDbEntity
  8
Layer 1
 62
     1
420
 16711680
370
    35
100
AcDb2dPolyline
 66
     1
 10
0.0
 20
0.0
 30
0.0
  0
VERTEX
  5
108
330
107
100
AcDbEntity
  8
Layer 1
 62
     1
420
 16711680
370
    35
100
AcDbVertex
100
AcDb2dVertex
 10
326.848611029399
 20
-95.4263888650323
 30
0.0
  0
VERTEX
  5
109
330
107
100
AcDbEntity
  8
Layer 1
 62
     1
420
 16711680
370
    35
100
AcDbVertex
100
AcDb2dVertex
 10
335.6680554716386
 20
-95.4263888650323
 30
0.0
  0
SEQEND
  5
10A
330
107
100
AcDbEntity
  8
Layer 1
 62
     1
420
 16711680
370
    35
  0
POLYLINE
  5
10B
330
1F
100
AcDbEntity
  8
Layer 1
 62
     1
420
 16711680
370
    35
100
AcDb2dPolyline
 66
     1
 10
0.0
 20
0.0
 30
0.0
  0
VERTEX
  5
10C
330
10B
100
AcDbEntity
  8
Layer 1
 62
     1
420
 16711680
370
    35
100
AcDbVertex
100
AcDb2dVertex
 10
342.0180554700511
 20
-95.4263888650323
 30
0.0
  0
VERTEX
  5
10D
330
10B
100
AcDbEntity
  8
Layer 1
 62
     1
420
 16711680
370
    35
100
AcDbVertex
100
AcDb2dVertex
 10
351.1902776899802
 20
-95.4263888650323
 30
0.0
  0
SEQEND
  5
10E
330
10B
100
AcDbEntity
  8
Layer 1
 62
     1
420
 16711680
370
    35
  0
POLYLINE
  5
10F
330
1F
100
AcDbEntity
  8
Layer 1
 62
     1
420
 16711680
370
    35
100
AcDb2dPolyline
 66
     1
 10
0.0
 20
0.0
 30
0.0
  0
VERTEX
  5
110
330
10F
100
AcDbEntity
  8
Layer 1
 62
     1
420
 16711680
370
    35
100
AcDbVertex
100
AcDb2dVertex
 10
388.5317168943279
 20
-95.98498149687816
 30
0.0
  0
VERTEX
  5
111
330
10F
100
AcDbEntity
  8
Layer 1
 62
     1
420
 16711680
370
    35
100
AcDbVertex
100
AcDb2dVertex
 10
370.648855243845
 20
-129.8683111078053
 30
0.0
  0
SEQEND
  5
112
330
10F
100
AcDbEntity
  8
Layer 1
 62
     1
420
 16711680
370
    35
  0
POLYLINE
  5
113
330
1F
100
AcDbEntity
  8
Layer 1
 62
     1
420
 16711680
370
    35
100
AcDb2dPolyline
 66
     1
 10
0.0
 20
0.0
 30
0.0
  0
VERTEX
  5
114
330
113
100
AcDbEntity
  8
Layer 1
 62
     1
420
 16711680
370
    35
100
AcDbVertex
100
AcDb2dVertex
 10
412.7659862359446
 20
-95.98499711438993
 30
0.0
  0
VERTEX
  5
115
330
113
100
AcDbEntity
  8
Layer 1
 62
     1
420
 16711680
370
    35
100
AcDbVertex
100
AcDb2dVertex
 10
430.6488473077343
 20
-129.8683128293574
 30
0.0
  0
SEQEND
  5
116
330
113
100
AcDbEntity
  8
Layer 1
 62
     1
420
 16711680
370
    35
  0
POLYLINE
  5
117
330
1F
100
AcDbEntity
  8
Layer 1
 62
     1
420
 16711680
370
    35
100
AcDb2dPolyline
 66
     1
 10
0.0
 20
0.0
 30
0.0
  0
VERTEX
  5
118
330
117
100
AcDbEntity
  8
Layer 1
 62
     1
420
 16711680
370
    35
100
AcDbVertex
100
AcDb2dVertex
 10
397.5775190567701
 20
-95.98498093189778
 30
0.0
  0
VERTEX
  5
119
330
117
100
AcDbEntity
  8
Layer 1
 62
     1
420
 16711680
370
    35
100
AcDbVertex
100
AcDb2dVertex
 10
379.6946494442216
 20
-129.8683128293574
 30
0.0
  0
SEQEND
  5
11A
330
117
100
AcDbEntity
  8
Layer 1
 62
     1
420
 16711680
370
    35
  0
POLYLINE
  5
11B
330
1F
100
AcDbEntity
  8
Layer 1
 62
     1
420
 16711680
370
    35
100
AcDb2dPolyline
 66
     1
 10
0.0
 20
0.0
 30
0.0
  0
VERTEX
  5
11C
330
11B
100
AcDbEntity
  8
Layer 1
 62
     1
420
 16711680
370
    35
100
AcDbVertex
100
AcDb2dVertex
 10
403.7201806594408
 20
-95.9849841683919
 30
0.0
  0
VERTEX
  5
11D
330
11B
100
AcDbEntity
  8
Layer 1
 62
     1
420
 16711680
370
    35
100
AcDbVertex
100
AcDb2dVertex
 10
421.6030485638404
 20
-129.8683128293574
 30
0.0
  0
SEQEND
  5
11E
330
11B
100
AcDbEntity
  8
Layer 1
 62
     1
420
 16711680
370
    35
  0
POLYLINE
  5
11F
330
1F
100
AcDbEntity
  8
Layer 1
 62
     1
420
 16711680
370
    35
100
AcDb2dPolyline
 66
     1
 10
0.0
 20
0.0
 30
0.0
  0
VERTEX
  5
120
330
11F
100
AcDbEntity
  8
Layer 1
 62
     1
420
 16711680
370
    35
100
AcDbVertex
100
AcDb2dVertex
 10
379.6946494442216
 20
-129.8683128293574
 30
0.0
  0
VERTEX
  5
121
330
11F
100
AcDbEntity
  8
Layer 1
 62
     1
420
 16711680
370
    35
100
AcDbVertex
100
AcDb2dVertex
 10
421.6030485638404
 20
-129.8683128293574
 30
0.0
  0
SEQEND
  5
122
330
11F
100
AcDbEntity
  8
Layer 1
 62
     1
420
 16711680
370
    35
  0
POLYLINE
  5
123
330
1F
100
AcDbEntity
  8
Layer 1
 62
     1
420
 16711680
370
    35
100
AcDb2dPolyline
 66
     1
 10
0.0
 20
0.0
 30
0.0
  0
VERTEX
  5
124
330
123
100
AcDbEntity
  8
Layer 1
 62
     1
420
 16711680
370
    35
100
AcDbVertex
100
AcDb2dVertex
 10
370.5930554629073
 20
-129.9986110786115
 30
0.0
  0
VERTEX
  5
125
330
123
100
AcDbEntity
  8
Layer 1
 62
     1
420
 16711680
370
    35
100
AcDbVertex
100
AcDb2dVertex
 10
370.5930554629073
 20
-209.0208332810781
 30
0.0
  0
SEQEND
  5
126
330
123
100
AcDbEntity
  8
Layer 1
 62
     1
420
 16711680
370
    35
  0
POLYLINE
  5
127
330
1F
100
AcDbEntity
  8
Layer 1
 62
     1
420
 16711680
370
    35
100
AcDb2dPolyline
 66
     1
 10
0.0
 20
0.0
 30
0.0
  0
VERTEX
  5
128
330
127
100
AcDbEntity
  8
Layer 1
 62
     1
420
 16711680
370
    35
100
AcDbVertex
100
AcDb2dVertex
 10
430.5652776701365
 20
-129.9986110786115
 30
0.0
  0
VERTEX
  5
129
330
127
100
AcDbEntity
  8
Layer 1
 62
     1
420
 16711680
370
    35
100
AcDbVertex
100
AcDb2dVertex
 10
430.5652776701365
 20
-209.0208332810781
 30
0.0
  0
SEQEND
  5
12A
330
127
100
AcDbEntity
  8
Layer 1
 62
     1
420
 16711680
370
    35
  0
POLYLINE
  5
12B
330
1F
100
AcDbEntity
  8
Layer 1
 62
     1
420
 16711680
370
    35
100
AcDb2dPolyline
 66
     1
 10
0.0
 20
0.0
 30
0.0
  0
VERTEX
  5
12C
330
12B
100
AcDbEntity
  8
Layer 1
 62
     1
420
 16711680
370
    35
100
AcDbVertex
100
AcDb2dVertex
 10
370.5930554629073
 20
-209.0208332810781
 30
0.0
  0
VERTEX
  5
12D
330
12B
100
AcDbEntity
  8
Layer 1
 62
     1
420
 16711680
370
    35
100
AcDbVertex
100
AcDb2dVertex
 10
430.5652776701365
 20
-209.0208332810781
 30
0.0
  0
SEQEND
  5
12E
330
12B
100
AcDbEntity
  8
Layer 1
 62
     1
420
 16711680
370
    35
  0
SPLINE
  5
12F
330
1F
100
AcDbEntity
  8
Layer 1
 62
     7
420
 16777215
370
    35
100
AcDbSpline
210
0.0
220
0.0
230
1.0
 70
    11
 71
     3
 72
    17
 73
    13
 74
     0
 42
0.0000000001
 43
0.0000000001
 12
1.0
 22
0.0
 32
0.0
 13
1.0
 23
0.0
 33
0.0
 40
0.0
 40
0.0
 40
0.0
 40
0.0
 40
1.0
 40
1.0
 40
1.0
 40
2.0
 40
2.0
 40
2.0
 40
3.0
 40
3.0
 40
3.0
 40
4.0
 40
4.0
 40
4.0
 40
4.0
 10
381.6473203114316
 20
-136.5472159113852
 30
0.0
 10
381.6473203114316
 20
-137.3756460403243
 30
0.0
 10
380.9757505251856
 20
-138.0472158265703
 30
0.0
 10
380.1473203962465
 20
-138.0472158265703
 30
0.0
 10
379.3188902673074
 20
-138.0472158265703
 30
0.0
 10
378.6473204810614
 20
-137.3756460403243
 30
0.0
 10
378.6473204810614
 20
-136.5472159113852
 30
0.0
 10
378.6473204810614
 20
-135.7187857824461
 30
0.0
 10
379.3188902673074
 20
-135.0472159962001
 30
0.0
 10
380.1473203962465
 20
-135.0472159962001
 30
0.0
 10
380.9757505251856
 20
-135.0472159962001
 30
0.0
 10
381.6473203114316
 20
-135.7187857824461
 30
0.0
 10
381.6473203114316
 20
-136.5472159113852
 30
0.0
  0
SPLINE
  5
130
330
1F
100
AcDbEntity
  8
Layer 1
 62
     7
420
 16777215
370
    35
100
AcDbSpline
210
0.0
220
0.0
230
1.0
 70
    11
 71
     3
 72
    17
 73
    13
 74
     0
 42
0.0000000001
 43
0.0000000001
 12
1.0
 22
0.0
 32
0.0
 13
1.0
 23
0.0
 33
0.0
 40
0.0
 40
0.0
 40
0.0
 40
0.0
 40
1.0
 40
1.0
 40
1.0
 40
2.0
 40
2.0
 40
2.0
 40
3.0
 40
3.0
 40
3.0
 40
4.0
 40
4.0
 40
4.0
 40
4.0
 10
423.2750980788024
 20
-136.5472159113852
 30
0.0
 10
423.2750980788024
 20
-137.3756460403243
 30
0.0
 10
422.6035282925565
 20
-138.0472158265703
 30
0.0
 10
421.7750981636174
 20
-138.0472158265703
 30
0.0
 10
420.9466680346782
 20
-138.0472158265703
 30
0.0
 10
420.2750982484322
 20
-137.3756460403243
 30
0.0
 10
420.2750982484322
 20
-136.5472159113852
 30
0.0
 10
420.2750982484322
 20
-135.7187857824461
 30
0.0
 10
420.9466680346782
 20
-135.0472159962001
 30
0.0
 10
421.7750981636174
 20
-135.0472159962001
 30
0.0
 10
422.6035282925565
 20
-135.0472159962001
 30
0.0
 10
423.2750980788024
 20
-135.7187857824461
 30
0.0
 10
423.2750980788024
 20
-136.5472159113852
 30
0.0
  0
POLYLINE
  5
131
330
1F
100
AcDbEntity
  8
Layer 1
 62
     1
420
 16711680
370
    35
100
AcDb2dPolyline
 66
     1
 10
0.0
 20
0.0
 30
0.0
  0
VERTEX
  5
132
330
131
100
AcDbEntity
  8
Layer 1
 62
     1
420
 16711680
370
    35
100
AcDbVertex
100
AcDb2dVertex
 10
388.584722125076
 20
-96.13194442041146
 30
0.0
  0
VERTEX
  5
133
330
131
100
AcDbEntity
  8
Layer 1
 62
     1
420
 16711680
370
    35
100
AcDbVertex
100
AcDb2dVertex
 10
397.4041665673157
 20
-96.13194442041146
 30
0.0
  0
SEQEND
  5
134
330
131
100
AcDbEntity
  8
Layer 1
 62
     1
420
 16711680
370
    35
  0
POLYLINE
  5
135
330
1F
100
AcDbEntity
  8
Layer 1
 62
     1
420
 16711680
370
    35
100
AcDb2dPolyline
 66
     1
 10
0.0
 20
0.0
 30
0.0
  0
VERTEX
  5
136
330
135
100
AcDbEntity
  8
Layer 1
 62
     1
420
 16711680
370
    35
100
AcDbVertex
100
AcDb2dVertex
 10
403.7541665657282
 20
-96.13194442041146
 30
0.0
  0
VERTEX
  5
137
330
135
100
AcDbEntity
  8
Layer 1
 62
     1
420
 16711680
370
    35
100
AcDbVertex
100
AcDb2dVertex
 10
412.9263887856573
 20
-96.13194442041146
 30
0.0
  0
SEQEND
  5
138
330
135
100
AcDbEntity
  8
Layer 1
 62
     1
420
 16711680
370
    35
  0
POLYLINE
  5
139
330
1F
100
AcDbEntity
  8
Layer 1
 62
     1
420
 16711680
370
    35
100
AcDb2dPolyline
 66
     1
 10
0.0
 20
0.0
 30
0.0
  0
VERTEX
  5
13A
330
139
100
AcDbEntity
  8
Layer 1
 62
     1
420
 16711680
370
    35
100
AcDbVertex
100
AcDb2dVertex
 10
450.267827990005
 20
-95.63220371918858
 30
0.0
  0
VERTEX
  5
13B
330
139
100
AcDbEntity
  8
Layer 1
 62
     1
420
 16711680
370
    35
100
AcDbVertex
100
AcDb2dVertex
 10
432.3849663395221
 20
-129.5155333301157
 30
0.0
  0
SEQEND
  5
13C
330
139
100
AcDbEntity
  8
Layer 1
 62
     1
420
 16711680
370
    35
  0
POLYLINE
  5
13D
330
1F
100
AcDbEntity
  8
Layer 1
 62
     1
420
 16711680
370
    35
100
AcDb2dPolyline
 66
     1
 10
0.0
 20
0.0
 30
0.0
  0
VERTEX
  5
13E
330
13D
100
AcDbEntity
  8
Layer 1
 62
     1
420
 16711680
370
    35
100
AcDbVertex
100
AcDb2dVertex
 10
474.5020973316217
 20
-95.63221933670035
 30
0.0
  0
VERTEX
  5
13F
330
13D
100
AcDbEntity
  8
Layer 1
 62
     1
420
 16711680
370
    35
100
AcDbVertex
100
AcDb2dVertex
 10
492.3849584034114
 20
-129.5155350516678
 30
0.0
  0
SEQEND
  5
140
330
13D
100
AcDbEntity
  8
Layer 1
 62
     1
420
 16711680
370
    35
  0
POLYLINE
  5
141
330
1F
100
AcDbEntity
  8
Layer 1
 62
     1
420
 16711680
370
    35
100
AcDb2dPolyline
 66
     1
 10
0.0
 20
0.0
 30
0.0
  0
VERTEX
  5
142
330
141
100
AcDbEntity
  8
Layer 1
 62
     1
420
 16711680
370
    35
100
AcDbVertex
100
AcDb2dVertex
 10
459.3136301524472
 20
-95.63220315420818
 30
0.0
  0
VERTEX
  5
143
330
141
100
AcDbEntity
  8
Layer 1
 62
     1
420
 16711680
370
    35
100
AcDbVertex
100
AcDb2dVertex
 10
441.4307605398986
 20
-129.5155350516678
 30
0.0
  0
SEQEND
  5
144
330
141
100
AcDbEntity
  8
Layer 1
 62
     1
420
 16711680
370
    35
  0
POLYLINE
  5
145
330
1F
100
AcDbEntity
  8
Layer 1
 62
     1
420
 16711680
370
    35
100
AcDb2dPolyline
 66
     1
 10
0.0
 20
0.0
 30
0.0
  0
VERTEX
  5
146
330
145
100
AcDbEntity
  8
Layer 1
 62
     1
420
 16711680
370
    35
100
AcDbVertex
100
AcDb2dVertex
 10
465.4562917551179
 20
-95.63220639070232
 30
0.0
  0
VERTEX
  5
147
330
145
100
AcDbEntity
  8
Layer 1
 62
     1
420
 16711680
370
    35
100
AcDbVertex
100
AcDb2dVertex
 10
483.3391596595175
 20
-129.5155350516678
 30
0.0
  0
SEQEND
  5
148
330
145
100
AcDbEntity
  8
Layer 1
 62
     1
420
 16711680
370
    35
  0
POLYLINE
  5
149
330
1F
100
AcDbEntity
  8
Layer 1
 62
     1
420
 16711680
370
    35
100
AcDb2dPolyline
 66
     1
 10
0.0
 20
0.0
 30
0.0
  0
VERTEX
  5
14A
330
149
100
AcDbEntity
  8
Layer 1
 62
     1
420
 16711680
370
    35
100
AcDbVertex
100
AcDb2dVertex
 10
441.4307605398986
 20
-129.5155350516678
 30
0.0
  0
VERTEX
  5
14B
330
149
100
AcDbEntity
  8
Layer 1
 62
     1
420
 16711680
370
    35
100
AcDbVertex
100
AcDb2dVertex
 10
483.3391596595175
 20
-129.5155350516678
 30
0.0
  0
SEQEND
  5
14C
330
149
100
AcDbEntity
  8
Layer 1
 62
     1
420
 16711680
370
    35
  0
POLYLINE
  5
14D
330
1F
100
AcDbEntity
  8
Layer 1
 62
     1
420
 16711680
370
    35
100
AcDb2dPolyline
 66
     1
 10
0.0
 20
0.0
 30
0.0
  0
VERTEX
  5
14E
330
14D
100
AcDbEntity
  8
Layer 1
 62
     1
420
 16711680
370
    35
100
AcDbVertex
100
AcDb2dVertex
 10
432.3291665585844
 20
-129.6458333009219
 30
0.0
  0
VERTEX
  5
14F
330
14D
100
AcDbEntity
  8
Layer 1
 62
     1
420
 16711680
370
    35
100
AcDbVertex
100
AcDb2dVertex
 10
432.3291665585844
 20
-208.6680555033886
 30
0.0
  0
SEQEND
  5
150
330
14D
100
AcDbEntity
  8
Layer 1
 62
     1
420
 16711680
370
    35
  0
POLYLINE
  5
151
330
1F
100
AcDbEntity
  8
Layer 1
 62
     1
420
 16711680
370
    35
100
AcDb2dPolyline
 66
     1
 10
0.0
 20
0.0
 30
0.0
  0
VERTEX
  5
152
330
151
100
AcDbEntity
  8
Layer 1
 62
     1
420
 16711680
370
    35
100
AcDbVertex
100
AcDb2dVertex
 10
492.3013887658136
 20
-129.6458333009219
 30
0.0
  0
VERTEX
  5
153
330
151
100
AcDbEntity
  8
Layer 1
 62
     1
420
 16711680
370
    35
100
AcDbVertex
100
AcDb2dVertex
 10
492.3013887658136
 20
-208.6680555033886
 30
0.0
  0
SEQEND
  5
154
330
151
100
AcDbEntity
  8
Layer 1
 62
     1
420
 16711680
370
    35
  0
POLYLINE
  5
155
330
1F
100
AcDbEntity
  8
Layer 1
 62
     1
420
 16711680
370
    35
100
AcDb2dPolyline
 66
     1
 10
0.0
 20
0.0
 30
0.0
  0
VERTEX
  5
156
330
155
100
AcDbEntity
  8
Layer 1
 62
     1
420
 16711680
370
    35
100
AcDbVertex
100
AcDb2dVertex
 10
432.3291665585844
 20
-208.6680555033886
 30
0.0
  0
VERTEX
  5
157
330
155
100
AcDbEntity
  8
Layer 1
 62
     1
420
 16711680
370
    35
100
AcDbVertex
100
AcDb2dVertex
 10
492.3013887658136
 20
-208.6680555033886
 30
0.0
  0
SEQEND
  5
158
330
155
100
AcDbEntity
  8
Layer 1
 62
     1
420
 16711680
370
    35
  0
SPLINE
  5
159
330
1F
100
AcDbEntity
  8
Layer 1
 62
     7
420
 16777215
370
    35
100
AcDbSpline
210
0.0
220
0.0
230
1.0
 70
    11
 71
     3
 72
    17
 73
    13
 74
     0
 42
0.0000000001
 43
0.0000000001
 12
1.0
 22
0.0
 32
0.0
 13
1.0
 23
0.0
 33
0.0
 40
0.0
 40
0.0
 40
0.0
 40
0.0
 40
1.0
 40
1.0
 40
1.0
 40
2.0
 40
2.0
 40
2.0
 40
3.0
 40
3.0
 40
3.0
 40
4.0
 40
4.0
 40
4.0
 40
4.0
 10
443.3834314071087
 20
-136.1944381336956
 30
0.0
 10
443.3834314071087
 20
-137.0228682626347
 30
0.0
 10
442.7118616208627
 20
-137.6944380488807
 30
0.0
 10
441.8834314919236
 20
-137.6944380488807
 30
0.0
 10
441.0550013629845
 20
-137.6944380488807
 30
0.0
 10
440.3834315767385
 20
-137.0228682626347
 30
0.0
 10
440.3834315767385
 20
-136.1944381336956
 30
0.0
 10
440.3834315767385
 20
-135.3660080047565
 30
0.0
 10
441.0550013629845
 20
-134.6944382185105
 30
0.0
 10
441.8834314919236
 20
-134.6944382185105
 30
0.0
 10
442.7118616208627
 20
-134.6944382185105
 30
0.0
 10
443.3834314071087
 20
-135.3660080047565
 30
0.0
 10
443.3834314071087
 20
-136.1944381336956
 30
0.0
  0
SPLINE
  5
15A
330
1F
100
AcDbEntity
  8
Layer 1
 62
     7
420
 16777215
370
    35
100
AcDbSpline
210
0.0
220
0.0
230
1.0
 70
    11
 71
     3
 72
    17
 73
    13
 74
     0
 42
0.0000000001
 43
0.0000000001
 12
1.0
 22
0.0
 32
0.0
 13
1.0
 23
0.0
 33
0.0
 40
0.0
 40
0.0
 40
0.0
 40
0.0
 40
1.0
 40
1.0
 40
1.0
 40
2.0
 40
2.0
 40
2.0
 40
3.0
 40
3.0
 40
3.0
 40
4.0
 40
4.0
 40
4.0
 40
4.0
 10
485.0112091744795
 20
-136.1944381336956
 30
0.0
 10
485.0112091744795
 20
-137.0228682626347
 30
0.0
 10
484.3396393882335
 20
-137.6944380488807
 30
0.0
 10
483.5112092592944
 20
-137.6944380488807
 30
0.0
 10
482.6827791303554
 20
-137.6944380488807
 30
0.0
 10
482.0112093441094
 20
-137.0228682626347
 30
0.0
 10
482.0112093441094
 20
-136.1944381336956
 30
0.0
 10
482.0112093441094
 20
-135.3660080047565
 30
0.0
 10
482.6827791303554
 20
-134.6944382185105
 30
0.0
 10
483.5112092592944
 20
-134.6944382185105
 30
0.0
 10
484.3396393882335
 20
-134.6944382185105
 30
0.0
 10
485.0112091744795
 20
-135.3660080047565
 30
0.0
 10
485.0112091744795
 20
-136.1944381336956
 30
0.0
  0
POLYLINE
  5
15B
330
1F
100
AcDbEntity
  8
Layer 1
 62
     1
420
 16711680
370
    35
100
AcDb2dPolyline
 66
     1
 10
0.0
 20
0.0
 30
0.0
  0
VERTEX
  5
15C
330
15B
100
AcDbEntity
  8
Layer 1
 62
     1
420
 16711680
370
    35
100
AcDbVertex
100
AcDb2dVertex
 10
450.3208332207532
 20
-95.77916664272188
 30
0.0
  0
VERTEX
  5
15D
330
15B
100
AcDbEntity
  8
Layer 1
 62
     1
420
 16711680
370
    35
100
AcDbVertex
100
AcDb2dVertex
 10
459.1402776629927
 20
-95.77916664272188
 30
0.0
  0
SEQEND
  5
15E
330
15B
100
AcDbEntity
  8
Layer 1
 62
     1
420
 16711680
370
    35
  0
POLYLINE
  5
15F
330
1F
100
AcDbEntity
  8
Layer 1
 62
     1
420
 16711680
370
    35
100
AcDb2dPolyline
 66
     1
 10
0.0
 20
0.0
 30
0.0
  0
VERTEX
  5
160
330
15F
100
AcDbEntity
  8
Layer 1
 62
     1
420
 16711680
370
    35
100
AcDbVertex
100
AcDb2dVertex
 10
465.4902776614052
 20
-95.77916664272188
 30
0.0
  0
VERTEX
  5
161
330
15F
100
AcDbEntity
  8
Layer 1
 62
     1
420
 16711680
370
    35
100
AcDbVertex
100
AcDb2dVertex
 10
474.6624998813344
 20
-95.77916664272188
 30
0.0
  0
SEQEND
  5
162
330
15F
100
AcDbEntity
  8
Layer 1
 62
     1
420
 16711680
370
    35
  0
POLYLINE
  5
163
330
1F
100
AcDbEntity
  8
Layer 1
 62
     1
420
 16711680
370
    35
100
AcDb2dPolyline
 66
     1
 10
0.0
 20
0.0
 30
0.0
  0
VERTEX
  5
164
330
163
100
AcDbEntity
  8
Layer 1
 62
     1
420
 16711680
370
    35
100
AcDbVertex
100
AcDb2dVertex
 10
512.0039390856821
 20
-96.33775927456774
 30
0.0
  0
VERTEX
  5
165
330
163
100
AcDbEntity
  8
Layer 1
 62
     1
420
 16711680
370
    35
100
AcDbVertex
100
AcDb2dVertex
 10
494.1210774351991
 20
-130.2210888854949
 30
0.0
  0
SEQEND
  5
166
330
163
100
AcDbEntity
  8
Layer 1
 62
     1
420
 16711680
370
    35
  0
POLYLINE
  5
167
330
1F
100
AcDbEntity
  8
Layer 1
 62
     1
420
 16711680
370
    35
100
AcDb2dPolyline
 66
     1
 10
0.0
 20
0.0
 30
0.0
  0
VERTEX
  5
168
330
167
100
AcDbEntity
  8
Layer 1
 62
     1
420
 16711680
370
    35
100
AcDbVertex
100
AcDb2dVertex
 10
536.2382084272988
 20
-96.33777489207951
 30
0.0
  0
VERTEX
  5
169
330
167
100
AcDbEntity
  8
Layer 1
 62
     1
420
 16711680
370
    35
100
AcDbVertex
100
AcDb2dVertex
 10
554.1210694990884
 20
-130.221090607047
 30
0.0
  0
SEQEND
  5
16A
330
167
100
AcDbEntity
  8
Layer 1
 62
     1
420
 16711680
370
    35
  0
POLYLINE
  5
16B
330
1F
100
AcDbEntity
  8
Layer 1
 62
     1
420
 16711680
370
    35
100
AcDb2dPolyline
 66
     1
 10
0.0
 20
0.0
 30
0.0
  0
VERTEX
  5
16C
330
16B
100
AcDbEntity
  8
Layer 1
 62
     1
420
 16711680
370
    35
100
AcDbVertex
100
AcDb2dVertex
 10
521.0497412481243
 20
-96.33775870958736
 30
0.0
  0
VERTEX
  5
16D
330
16B
100
AcDbEntity
  8
Layer 1
 62
     1
420
 16711680
370
    35
100
AcDbVertex
100
AcDb2dVertex
 10
503.1668716355757
 20
-130.221090607047
 30
0.0
  0
SEQEND
  5
16E
330
16B
100
AcDbEntity
  8
Layer 1
 62
     1
420
 16711680
370
    35
  0
POLYLINE
  5
16F
330
1F
100
AcDbEntity
  8
Layer 1
 62
     1
420
 16711680
370
    35
100
AcDb2dPolyline
 66
     1
 10
0.0
 20
0.0
 30
0.0
  0
VERTEX
  5
170
330
16F
100
AcDbEntity
  8
Layer 1
 62
     1
420
 16711680
370
    35
100
AcDbVertex
100
AcDb2dVertex
 10
527.1924028507949
 20
-96.33776194608149
 30
0.0
  0
VERTEX
  5
171
330
16F
100
AcDbEntity
  8
Layer 1
 62
     1
420
 16711680
370
    35
100
AcDbVertex
100
AcDb2dVertex
 10
545.0752707551945
 20
-130.221090607047
 30
0.0
  0
SEQEND
  5
172
330
16F
100
AcDbEntity
  8
Layer 1
 62
     1
420
 16711680
370
    35
  0
POLYLINE
  5
173
330
1F
100
AcDbEntity
  8
Layer 1
 62
     1
420
 16711680
370
    35
100
AcDb2dPolyline
 66
     1
 10
0.0
 20
0.0
 30
0.0
  0
VERTEX
  5
174
330
173
100
AcDbEntity
  8
Layer 1
 62
     1
420
 16711680
370
    35
100
AcDbVertex
100
AcDb2dVertex
 10
503.1668716355757
 20
-130.221090607047
 30
0.0
  0
VERTEX
  5
175
330
173
100
AcDbEntity
  8
Layer 1
 62
     1
420
 16711680
370
    35
100
AcDbVertex
100
AcDb2dVertex
 10
545.0752707551945
 20
-130.221090607047
 30
0.0
  0
SEQEND
  5
176
330
173
100
AcDbEntity
  8
Layer 1
 62
     1
420
 16711680
370
    35
  0
POLYLINE
  5
177
330
1F
100
AcDbEntity
  8
Layer 1
 62
     1
420
 16711680
370
    35
100
AcDb2dPolyline
 66
     1
 10
0.0
 20
0.0
 30
0.0
  0
VERTEX
  5
178
330
177
100
AcDbEntity
  8
Layer 1
 62
     1
420
 16711680
370
    35
100
AcDbVertex
100
AcDb2dVertex
 10
494.0652776542615
 20
-130.351388856301
 30
0.0
  0
VERTEX
  5
179
330
177
100
AcDbEntity
  8
Layer 1
 62
     1
420
 16711680
370
    35
100
AcDbVertex
100
AcDb2dVertex
 10
494.0652776542615
 20
-209.3736110587677
 30
0.0
  0
SEQEND
  5
17A
330
177
100
AcDbEntity
  8
Layer 1
 62
     1
420
 16711680
370
    35
  0
POLYLINE
  5
17B
330
1F
100
AcDbEntity
  8
Layer 1
 62
     1
420
 16711680
370
    35
100
AcDb2dPolyline
 66
     1
 10
0.0
 20
0.0
 30
0.0
  0
VERTEX
  5
17C
330
17B
100
AcDbEntity
  8
Layer 1
 62
     1
420
 16711680
370
    35
100
AcDbVertex
100
AcDb2dVertex
 10
554.0374998614907
 20
-130.351388856301
 30
0.0
  0
VERTEX
  5
17D
330
17B
100
AcDbEntity
  8
Layer 1
 62
     1
420
 16711680
370
    35
100
AcDbVertex
100
AcDb2dVertex
 10
554.0374998614907
 20
-209.3736110587677
 30
0.0
  0
SEQEND
  5
17E
330
17B
100
AcDbEntity
  8
Layer 1
 62
     1
420
 16711680
370
    35
  0
POLYLINE
  5
17F
330
1F
100
AcDbEntity
  8
Layer 1
 62
     1
420
 16711680
370
    35
100
AcDb2dPolyline
 66
     1
 10
0.0
 20
0.0
 30
0.0
  0
VERTEX
  5
180
330
17F
100
AcDbEntity
  8
Layer 1
 62
     1
420
 16711680
370
    35
100
AcDbVertex
100
AcDb2dVertex
 10
494.0652776542615
 20
-209.3736110587677
 30
0.0
  0
VERTEX
  5
181
330
17F
100
AcDbEntity
  8
Layer 1
 62
     1
420
 16711680
370
    35
100
AcDbVertex
100
AcDb2dVertex
 10
554.0374998614907
 20
-209.3736110587677
 30
0.0
  0
SEQEND
  5
182
330
17F
100
AcDbEntity
  8
Layer 1
 62
     1
420
 16711680
370
    35
  0
SPLINE
  5
183
330
1F
100
AcDbEntity
  8
Layer 1
 62
     7
420
 16777215
370
    35
100
AcDbSpline
210
0.0
220
0.0
230
1.0
 70
    11
 71
     3
 72
    17
 73
    13
 74
     0
 42
0.0000000001
 43
0.0000000001
 12
1.0
 22
0.0
 32
0.0
 13
1.0
 23
0.0
 33
0.0
 40
0.0
 40
0.0
 40
0.0
 40
0.0
 40
1.0
 40
1.0
 40
1.0
 40
2.0
 40
2.0
 40
2.0
 40
3.0
 40
3.0
 40
3.0
 40
4.0
 40
4.0
 40
4.0
 40
4.0
 10
505.1195425027857
 20
-136.8999936890748
 30
0.0
 10
505.1195425027857
 20
-137.7284238180139
 30
0.0
 10
504.4479727165398
 20
-138.3999936042599
 30
0.0
 10
503.6195425876007
 20
-138.3999936042599
 30
0.0
 10
502.7911124586616
 20
-138.3999936042599
 30
0.0
 10
502.1195426724156
 20
-137.7284238180139
 30
0.0
 10
502.1195426724156
 20
-136.8999936890748
 30
0.0
 10
502.1195426724156
 20
-136.0715635601357
 30
0.0
 10
502.7911124586616
 20
-135.3999937738897
 30
0.0
 10
503.6195425876007
 20
-135.3999937738897
 30
0.0
 10
504.4479727165398
 20
-135.3999937738897
 30
0.0
 10
505.1195425027857
 20
-136.0715635601357
 30
0.0
 10
505.1195425027857
 20
-136.8999936890748
 30
0.0
  0
SPLINE
  5
184
330
1F
100
AcDbEntity
  8
Layer 1
 62
     7
420
 16777215
370
    35
100
AcDbSpline
210
0.0
220
0.0
230
1.0
 70
    11
 71
     3
 72
    17
 73
    13
 74
     0
 42
0.0000000001
 43
0.0000000001
 12
1.0
 22
0.0
 32
0.0
 13
1.0
 23
0.0
 33
0.0
 40
0.0
 40
0.0
 40
0.0
 40
0.0
 40
1.0
 40
1.0
 40
1.0
 40
2.0
 40
2.0
 40
2.0
 40
3.0
 40
3.0
 40
3.0
 40
4.0
 40
4.0
 40
4.0
 40
4.0
 10
546.7473202701566
 20
-136.8999936890748
 30
0.0
 10
546.7473202701566
 20
-137.7284238180139
 30
0.0
 10
546.0757504839106
 20
-138.3999936042599
 30
0.0
 10
545.2473203549715
 20
-138.3999936042599
 30
0.0
 10
544.4188902260324
 20
-138.3999936042599
 30
0.0
 10
543.7473204397864
 20
-137.7284238180139
 30
0.0
 10
543.7473204397864
 20
-136.8999936890748
 30
0.0
 10
543.7473204397864
 20
-136.0715635601357
 30
0.0
 10
544.4188902260324
 20
-135.3999937738897
 30
0.0
 10
545.2473203549715
 20
-135.3999937738897
 30
0.0
 10
546.0757504839106
 20
-135.3999937738897
 30
0.0
 10
546.7473202701566
 20
-136.0715635601357
 30
0.0
 10
546.7473202701566
 20
-136.8999936890748
 30
0.0
  0
POLYLINE
  5
185
330
1F
100
AcDbEntity
  8
Layer 1
 62
     1
420
 16711680
370
    35
100
AcDb2dPolyline
 66
     1
 10
0.0
 20
0.0
 30
0.0
  0
VERTEX
  5
186
330
185
100
AcDbEntity
  8
Layer 1
 62
     1
420
 16711680
370
    35
100
AcDbVertex
100
AcDb2dVertex
 10
512.0569443164302
 20
-96.48472219810104
 30
0.0
  0
VERTEX
  5
187
330
185
100
AcDbEntity
  8
Layer 1
 62
     1
420
 16711680
370
    35
100
AcDbVertex
100
AcDb2dVertex
 10
520.8763887586698
 20
-96.48472219810104
 30
0.0
  0
SEQEND
  5
188
330
185
100
AcDbEntity
  8
Layer 1
 62
     1
420
 16711680
370
    35
  0
POLYLINE
  5
189
330
1F
100
AcDbEntity
  8
Layer 1
 62
     1
420
 16711680
370
    35
100
AcDb2dPolyline
 66
     1
 10
0.0
 20
0.0
 30
0.0
  0
VERTEX
  5
18A
330
189
100
AcDbEntity
  8
Layer 1
 62
     1
420
 16711680
370
    35
100
AcDbVertex
100
AcDb2dVertex
 10
527.2263887570823
 20
-96.48472219810104
 30
0.0
  0
VERTEX
  5
18B
330
189
100
AcDbEntity
  8
Layer 1
 62
     1
420
 16711680
370
    35
100
AcDbVertex
100
AcDb2dVertex
 10
536.3986109770115
 20
-96.48472219810104
 30
0.0
  0
SEQEND
  5
18C
330
189
100
AcDbEntity
  8
Layer 1
 62
     1
420
 16711680
370
    35
  0
ENDSEC
  0
SECTION
  2
OBJECTS
  0
DICTIONARY
  5
C
330
0
100
AcDbDictionary
281
     1
  3
ACAD_GROUP
350
D
  3
ACAD_LAYOUT
350
1A
  3
ACAD_MATERIAL
350
3B
  3
ACAD_MLEADERSTYLE
350
18E
  3
ACAD_MLINESTYLE
350
17
  3
ACAD_PLOTSETTINGS
350
19
  3
ACAD_PLOTSTYLENAME
350
E
  3
ACAD_TABLESTYLE
350
18D
  3
ACAD_VISUALSTYLE
350
2A
  0
SUN
  5
3F
330
29
100
AcDbSun
 90
        1
290
     0
 63
     7
421
 16777215
 40
1.0
291
     1
 91
  2455826
 92
 54000000
292
     0
 70
     2
 71
   256
280
     1
  0
DICTIONARY
  5
D
102
{ACAD_REACTORS
330
C
102
}
330
C
100
AcDbDictionary
281
     1
  0
DICTIONARY
  5
1A
102
{ACAD_REACTORS
330
C
102
}
330
C
100
AcDbDictionary
281
     1
  3
Layout1
350
1E
  3
Layout2
350
26
  3
Model
350
22
  0
DICTIONARY
  5
3B
102
{ACAD_REACTORS
330
C
102
}
330
C
100
AcDbDictionary
281
     1
  3
ByBlock
350
3D
  3
ByLayer
350
3C
  3
Global
350
3E
  0
DICTIONARY
  5
18E
102
{ACAD_REACTORS
330
C
102
}
330
C
100
AcDbDictionary
281
     1
  0
DICTIONARY
  5
17
102
{ACAD_REACTORS
330
C
102
}
330
C
100
AcDbDictionary
281
     1
  3
Standard
350
18
  0
DICTIONARY
  5
19
102
{ACAD_REACTORS
330
C
102
}
330
C
100
AcDbDictionary
281
     1
  0
ACDBDICTIONARYWDFLT
  5
E
102
{ACAD_REACTORS
330
C
102
}
330
C
100
AcDbDictionary
281
     1
  3
Normal
350
F
100
AcDbDictionaryWithDefault
340
F
  0
DICTIONARY
  5
18D
102
{ACAD_REACTORS
330
C
102
}
330
C
100
AcDbDictionary
281
     1
  0
DICTIONARY
  5
2A
102
{ACAD_REACTORS
330
C
102
}
330
C
100
AcDbDictionary
281
     1
  3
2dWireframe
350
2F
  3
3D Hidden
350
31
  3
3dWireframe
350
30
  3
Basic
350
32
  3
Brighten
350
36
  3
ColorChange
350
3A
  3
Conceptual
350
34
  3
Dim
350
35
  3
Facepattern
350
39
  3
Flat
350
2B
  3
FlatWithEdges
350
2C
  3
Gouraud
350
2D
  3
GouraudWithEdges
350
2E
  3
Linepattern
350
38
  3
Realistic
350
33
  3
Thicken
350
37
  0
LAYOUT
  5
1E
102
{ACAD_REACTORS
330
1A
102
}
330
1A
100
AcDbPlotSettings
  1

  2
none_device
  4

  6

 40
0.0
 41
0.0
 42
0.0
 43
0.0
 44
0.0
 45
0.0
 46
0.0
 47
0.0
 48
0.0
 49
0.0
140
0.0
141
0.0
142
1.0
143
1.0
 70
   688
 72
     0
 73
     0
 74
     5
  7

 75
    16
 76
     0
 77
     2
 78
   300
147
1.0
148
0.0
149
0.0
100
AcDbLayout
  1
Layout1
 70
     1
 71
     1
 10
0.0
 20
0.0
 11
12.0
 21
9.0
 12
0.0
 22
0.0
 32
0.0
 14
1.000000000000000E+20
 24
1.000000000000000E+20
 34
1.000000000000000E+20
 15
-1.000000000000000E+20
 25
-1.000000000000000E+20
 35
-1.000000000000000E+20
146
0.0
 13
0.0
 23
0.0
 33
0.0
 16
1.0
 26
0.0
 36
0.0
 17
0.0
 27
1.0
 37
0.0
 76
     0
330
1B
  0
LAYOUT
  5
26
102
{ACAD_REACTORS
330
1A
102
}
330
1A
100
AcDbPlotSettings
  1

  2
none_device
  4

  6

 40
0.0
 41
0.0
 42
0.0
 43
0.0
 44
0.0
 45
0.0
 46
0.0
 47
0.0
 48
0.0
 49
0.0
140
0.0
141
0.0
142
1.0
143
1.0
 70
   688
 72
     0
 73
     0
 74
     5
  7

 75
    16
 76
     0
 77
     2
 78
   300
147
1.0
148
0.0
149
0.0
100
AcDbLayout
  1
Layout2
 70
     1
 71
     2
 10
0.0
 20
0.0
 11
0.0
 21
0.0
 12
0.0
 22
0.0
 32
0.0
 14
0.0
 24
0.0
 34
0.0
 15
0.0
 25
0.0
 35
0.0
146
0.0
 13
0.0
 23
0.0
 33
0.0
 16
1.0
 26
0.0
 36
0.0
 17
0.0
 27
1.0
 37
0.0
 76
     0
330
23
  0
LAYOUT
  5
22
102
{ACAD_REACTORS
330
1A
102
}
330
1A
100
AcDbPlotSettings
  1

  2
none_device
  4

  6

 40
0.0
 41
0.0
 42
0.0
 43
0.0
 44
0.0
 45
0.0
 46
0.0
 47
0.0
 48
0.0
 49
0.0
140
0.0
141
0.0
142
1.0
143
1.0
 70
  1712
 72
     0
 73
     0
 74
     0
  7

 75
     0
 76
     0
 77
     2
 78
   300
147
1.0
148
0.0
149
0.0
100
AcDbLayout
  1
Model
 70
     1
 71
     0
 10
0.0
 20
0.0
 11
12.0
 21
9.0
 12
0.0
 22
0.0
 32
0.0
 14
1.000000000000000E+20
 24
1.000000000000000E+20
 34
1.000000000000000E+20
 15
-1.000000000000000E+20
 25
-1.000000000000000E+20
 35
-1.000000000000000E+20
146
0.0
 13
0.0
 23
0.0
 33
0.0
 16
1.0
 26
0.0
 36
0.0
 17
0.0
 27
1.0
 37
0.0
 76
     0
330
1F
331
29
  0
MATERIAL
  5
3D
102
{ACAD_REACTORS
330
3B
102
}
330
3B
100
AcDbMaterial
  1
ByBlock
 72
     1
 94
      127
  0
MATERIAL
  5
3C
102
{ACAD_REACTORS
330
3B
102
}
330
3B
100
AcDbMaterial
  1
ByLayer
 72
     1
 94
      127
  0
MATERIAL
  5
3E
102
{ACAD_REACTORS
330
3B
102
}
330
3B
100
AcDbMaterial
  1
Global
 72
     1
 94
      127
  0
MLINESTYLE
  5
18
102
{ACAD_REACTORS
330
17
102
}
330
17
100
AcDbMlineStyle
  2
Standard
 70
     0
  3

 62
   256
 51
90.0
 52
90.0
 71
     2
 49
0.5
 62
   256
  6
BYLAYER
 49
-0.5
 62
   256
  6
BYLAYER
  0
ACDBPLACEHOLDER
  5
F
102
{ACAD_REACTORS
330
E
102
}
330
E
  0
VISUALSTYLE
  5
2F
102
{ACAD_REACTORS
330
2A
102
}
330
2A
100
AcDbVisualStyle
  2
2dWireframe
 70
     4
177
     2
291
     0
 71
     0
176
     1
 72
     2
176
     1
 73
     0
176
     1
 90
        0
176
     1
 40
-0.6
176
     1
 41
-30.0
176
     1
 62
     5
 63
     7
421
 16777215
176
     1
 74
     1
176
     1
 91
        4
176
     1
 64
     7
176
     1
 65
   257
176
     1
 75
     1
176
     1
175
     1
176
     1
 42
1.0
176
     1
 92
        0
176
     1
 66
   257
176
     1
 43
1.0
176
     1
 76
     1
176
     1
 77
     6
176
     1
 78
     2
176
     1
 67
     7
176
     1
 79
     5
176
     1
170
     0
176
     1
171
     0
176
     1
290
     0
176
     1
 93
        1
176
     1
 44
0.0
176
     1
173
     0
176
     1
  0
VISUALSTYLE
  5
31
102
{ACAD_REACTORS
330
2A
102
}
330
2A
100
AcDbVisualStyle
  2
3D Hidden
 70
     6
177
     2
291
     0
 71
     1
176
     1
 72
     2
176
     1
 73
     2
176
     1
 90
        0
176
     1
 40
-0.6
176
     1
 41
-30.0
176
     1
 62
     5
 63
     7
421
 16777215
176
     1
 74
     2
176
     1
 91
        2
176
     1
 64
     7
176
     1
 65
   257
176
     1
 75
     2
176
     1
175
     1
176
     1
 42
40.0
176
     1
 92
        0
176
     1
 66
   257
176
     1
 43
1.0
176
     1
 76
     1
176
     1
 77
     6
176
     1
 78
     2
176
     1
 67
     7
176
     1
 79
     3
176
     1
170
     0
176
     1
171
     0
176
     1
290
     0
176
     1
 93
        1
176
     1
 44
0.0
176
     1
173
     0
176
     1
  0
VISUALSTYLE
  5
30
102
{ACAD_REACTORS
330
2A
102
}
330
2A
100
AcDbVisualStyle
  2
3dWireframe
 70
     5
177
     2
291
     0
 71
     0
176
     1
 72
     2
176
     1
 73
     0
176
     1
 90
        0
176
     1
 40
-0.6
176
     1
 41
-30.0
176
     1
 62
     5
 63
     7
421
 16777215
176
     1
 74
     1
176
     1
 91
        4
176
     1
 64
     7
176
     1
 65
   257
176
     1
 75
     1
176
     1
175
     1
176
     1
 42
1.0
176
     1
 92
        0
176
     1
 66
   257
176
     1
 43
1.0
176
     1
 76
     1
176
     1
 77
     6
176
     1
 78
     2
176
     1
 67
     7
176
     1
 79
     5
176
     1
170
     0
176
     1
171
     0
176
     1
290
     0
176
     1
 93
        1
176
     1
 44
0.0
176
     1
173
     0
176
     1
  0
VISUALSTYLE
  5
32
102
{ACAD_REACTORS
330
2A
102
}
330
2A
100
AcDbVisualStyle
  2
Basic
 70
     7
177
     2
291
     1
 71
     1
176
     1
 72
     0
176
     1
 73
     1
176
     1
 90
        0
176
     1
 40
-0.6
176
     1
 41
-30.0
176
     1
 62
     5
 63
     7
421
 16777215
176
     1
 74
     0
176
     1
 91
        4
176
     1
 64
     7
176
     1
 65
   257
176
     1
 75
     1
176
     1
175
     1
176
     1
 42
1.0
176
     1
 92
        8
176
     1
 66
     7
176
     1
 43
1.0
176
     1
 76
     1
176
     1
 77
     6
176
     1
 78
     2
176
     1
 67
     7
176
     1
 79
     5
176
     1
170
     0
176
     1
171
     0
176
     1
290
     0
176
     1
 93
        1
176
     1
 44
0.0
176
     1
173
     0
176
     1
  0
VISUALSTYLE
  5
36
102
{ACAD_REACTORS
330
2A
102
}
330
2A
100
AcDbVisualStyle
  2
Brighten
 70
    12
177
     2
291
     1
 71
     2
176
     1
 72
     2
176
     1
 73
     0
176
     1
 90
        0
176
     1
 40
-0.6
176
     1
 41
-30.0
176
     1
 62
     5
 63
     7
421
 16777215
176
     1
 74
     1
176
     1
 91
        4
176
     1
 64
     7
176
     1
 65
   257
176
     1
 75
     1
176
     1
175
     1
176
     1
 42
1.0
176
     1
 92
        8
176
     1
 66
     7
176
     1
 43
1.0
176
     1
 76
     1
176
     1
 77
     6
176
     1
 78
     2
176
     1
 67
     7
176
     1
 79
     5
176
     1
170
     0
176
     1
171
     0
176
     1
290
     0
176
     1
 93
        1
176
     1
 44
50.0
176
     1
173
     0
176
     1
  0
VISUALSTYLE
  5
3A
102
{ACAD_REACTORS
330
2A
102
}
330
2A
100
AcDbVisualStyle
  2
ColorChange
 70
    16
177
     2
291
     1
 71
     2
176
     1
 72
     2
176
     1
 73
     3
176
     1
 90
        0
176
     1
 40
-0.6
176
     1
 41
-30.0
176
     1
 62
     5
 63
     8
421
  8421504
176
     1
 74
     1
176
     1
 91
        4
176
     1
 64
     7
176
     1
 65
   257
176
     1
 75
     1
176
     1
175
     1
176
     1
 42
1.0
176
     1
 92
        8
176
     1
 66
     8
424
  8421504
176
     1
 43
1.0
176
     1
 76
     1
176
     1
 77
     6
176
     1
 78
     2
176
     1
 67
     7
176
     1
 79
     5
176
     1
170
     0
176
     1
171
     0
176
     1
290
     0
176
     1
 93
        1
176
     1
 44
0.0
176
     1
173
     0
176
     1
  0
VISUALSTYLE
  5
34
102
{ACAD_REACTORS
330
2A
102
}
330
2A
100
AcDbVisualStyle
  2
Conceptual
 70
     9
177
     2
291
     0
 71
     3
176
     1
 72
     2
176
     1
 73
     0
176
     1
 90
        0
176
     1
 40
-0.6
176
     1
 41
-30.0
176
     1
 62
     5
 63
     7
421
 16777215
176
     1
 74
     2
176
     1
 91
        2
176
     1
 64
     7
176
     1
 65
   257
176
     1
 75
     1
176
     1
175
     1
176
     1
 42
40.0
176
     1
 92
        8
176
     1
 66
     7
176
     1
 43
1.0
176
     1
 76
     1
176
     1
 77
     6
176
     1
 78
     2
176
     1
 67
     7
176
     1
 79
     3
176
     1
170
     0
176
     1
171
     0
176
     1
290
     0
176
     1
 93
        1
176
     1
 44
0.0
176
     1
173
     0
176
     1
  0
VISUALSTYLE
  5
35
102
{ACAD_REACTORS
330
2A
102
}
330
2A
100
AcDbVisualStyle
  2
Dim
 70
    11
177
     2
291
     1
 71
     2
176
     1
 72
     2
176
     1
 73
     0
176
     1
 90
        0
176
     1
 40
-0.6
176
     1
 41
-30.0
176
     1
 62
     5
 63
     7
421
 16777215
176
     1
 74
     1
176
     1
 91
        4
176
     1
 64
     7
176
     1
 65
   257
176
     1
 75
     1
176
     1
175
     1
176
     1
 42
1.0
176
     1
 92
        8
176
     1
 66
     7
176
     1
 43
1.0
176
     1
 76
     1
176
     1
 77
     6
176
     1
 78
     2
176
     1
 67
     7
176
     1
 79
     5
176
     1
170
     0
176
     1
171
     0
176
     1
290
     0
176
     1
 93
        1
176
     1
 44
-50.0
176
     1
173
     0
176
     1
  0
VISUALSTYLE
  5
39
102
{ACAD_REACTORS
330
2A
102
}
330
2A
100
AcDbVisualStyle
  2
Facepattern
 70
    15
177
     2
291
     1
 71
     2
176
     1
 72
     2
176
     1
 73
     0
176
     1
 90
        0
176
     1
 40
-0.6
176
     1
 41
-30.0
176
     1
 62
     5
 63
     7
421
 16777215
176
     1
 74
     1
176
     1
 91
        4
176
     1
 64
     7
176
     1
 65
   257
176
     1
 75
     1
176
     1
175
     1
176
     1
 42
1.0
176
     1
 92
        8
176
     1
 66
     7
176
     1
 43
1.0
176
     1
 76
     1
176
     1
 77
     6
176
     1
 78
     2
176
     1
 67
     7
176
     1
 79
     5
176
     1
170
     0
176
     1
171
     0
176
     1
290
     0
176
     1
 93
        1
176
     1
 44
0.0
176
     1
173
     0
176
     1
  0
VISUALSTYLE
  5
2B
102
{ACAD_REACTORS
330
2A
102
}
330
2A
100
AcDbVisualStyle
  2
Flat
 70
     0
177
     2
291
     1
 71
     2
176
     1
 72
     1
176
     1
 73
     1
176
     1
 90
        2
176
     1
 40
-0.6
176
     1
 41
30.0
176
     1
 62
     5
 63
     7
421
 16777215
176
     1
 74
     0
176
     1
 91
        4
176
     1
 64
     7
176
     1
 65
   257
176
     1
 75
     1
176
     1
175
     1
176
     1
 42
1.0
176
     1
 92
        8
176
     1
 66
     7
176
     1
 43
1.0
176
     1
 76
     1
176
     1
 77
     6
176
     1
 78
     2
176
     1
 67
     7
176
     1
 79
     5
176
     1
170
     0
176
     1
171
     0
176
     1
290
     0
176
     1
 93
       13
176
     1
 44
0.0
176
     1
173
     0
176
     1
  0
VISUALSTYLE
  5
2C
102
{ACAD_REACTORS
330
2A
102
}
330
2A
100
AcDbVisualStyle
  2
FlatWithEdges
 70
     1
177
     2
291
     1
 71
     2
176
     1
 72
     1
176
     1
 73
     1
176
     1
 90
        2
176
     1
 40
-0.6
176
     1
 41
30.0
176
     1
 62
     5
 63
     7
421
 16777215
176
     1
 74
     1
176
     1
 91
        4
176
     1
 64
     7
176
     1
 65
   257
176
     1
 75
     1
176
     1
175
     1
176
     1
 42
1.0
176
     1
 92
        0
176
     1
 66
   257
176
     1
 43
1.0
176
     1
 76
     1
176
     1
 77
     6
176
     1
 78
     2
176
     1
 67
     7
176
     1
 79
     5
176
     1
170
     0
176
     1
171
     0
176
     1
290
     0
176
     1
 93
       13
176
     1
 44
0.0
176
     1
173
     0
176
     1
  0
VISUALSTYLE
  5
2D
102
{ACAD_REACTORS
330
2A
102
}
330
2A
100
AcDbVisualStyle
  2
Gouraud
 70
     2
177
     2
291
     1
 71
     2
176
     1
 72
     2
176
     1
 73
     1
176
     1
 90
        2
176
     1
 40
-0.6
176
     1
 41
30.0
176
     1
 62
     5
 63
     7
421
 16777215
176
     1
 74
     0
176
     1
 91
        4
176
     1
 64
     7
176
     1
 65
   257
176
     1
 75
     1
176
     1
175
     1
176
     1
 42
1.0
176
     1
 92
        0
176
     1
 66
     7
176
     1
 43
1.0
176
     1
 76
     1
176
     1
 77
     6
176
     1
 78
     2
176
     1
 67
     7
176
     1
 79
     5
176
     1
170
     0
176
     1
171
     0
176
     1
290
     0
176
     1
 93
       13
176
     1
 44
0.0
176
     1
173
     0
176
     1
  0
VISUALSTYLE
  5
2E
102
{ACAD_REACTORS
330
2A
102
}
330
2A
100
AcDbVisualStyle
  2
GouraudWithEdges
 70
     3
177
     2
291
     1
 71
     2
176
     1
 72
     2
176
     1
 73
     1
176
     1
 90
        2
176
     1
 40
-0.6
176
     1
 41
30.0
176
     1
 62
     5
 63
     7
421
 16777215
176
     1
 74
     1
176
     1
 91
        4
176
     1
 64
     7
176
     1
 65
   257
176
     1
 75
     1
176
     1
175
     1
176
     1
 42
1.0
176
     1
 92
        0
176
     1
 66
   257
176
     1
 43
1.0
176
     1
 76
     1
176
     1
 77
     6
176
     1
 78
     2
176
     1
 67
     7
176
     1
 79
     5
176
     1
170
     0
176
     1
171
     0
176
     1
290
     0
176
     1
 93
       13
176
     1
 44
0.0
176
     1
173
     0
176
     1
  0
VISUALSTYLE
  5
38
102
{ACAD_REACTORS
330
2A
102
}
330
2A
100
AcDbVisualStyle
  2
Linepattern
 70
    14
177
     2
291
     1
 71
     2
176
     1
 72
     2
176
     1
 73
     0
176
     1
 90
        0
176
     1
 40
-0.6
176
     1
 41
-30.0
176
     1
 62
     5
 63
     7
421
 16777215
176
     1
 74
     1
176
     1
 91
        4
176
     1
 64
     7
176
     1
 65
   257
176
     1
 75
     7
176
     1
175
     7
176
     1
 42
1.0
176
     1
 92
        8
176
     1
 66
     7
176
     1
 43
1.0
176
     1
 76
     1
176
     1
 77
     6
176
     1
 78
     2
176
     1
 67
     7
176
     1
 79
     5
176
     1
170
     0
176
     1
171
     0
176
     1
290
     0
176
     1
 93
        1
176
     1
 44
0.0
176
     1
173
     0
176
     1
  0
VISUALSTYLE
  5
33
102
{ACAD_REACTORS
330
2A
102
}
330
2A
100
AcDbVisualStyle
  2
Realistic
 70
     8
177
     2
291
     0
 71
     2
176
     1
 72
     2
176
     1
 73
     0
176
     1
 90
        0
176
     1
 40
-0.6
176
     1
 41
-30.0
176
     1
 62
     5
 63
     7
421
 16777215
176
     1
 74
     1
176
     1
 91
        0
176
     1
 64
     7
176
     1
 65
   257
176
     1
 75
     1
176
     1
175
     1
176
     1
 42
1.0
176
     1
 92
        8
176
     1
 66
     8
424
  7895160
176
     1
 43
1.0
176
     1
 76
     1
176
     1
 77
     6
176
     1
 78
     2
176
     1
 67
     7
176
     1
 79
     5
176
     1
170
     0
176
     1
171
     0
176
     1
290
     0
176
     1
 93
       13
176
     1
 44
0.0
176
     1
173
     0
176
     1
  0
VISUALSTYLE
  5
37
102
{ACAD_REACTORS
330
2A
102
}
330
2A
100
AcDbVisualStyle
  2
Thicken
 70
    13
177
     2
291
     1
 71
     2
176
     1
 72
     2
176
     1
 73
     0
176
     1
 90
        0
176
     1
 40
-0.6
176
     1
 41
-30.0
176
     1
 62
     5
 63
     7
421
 16777215
176
     1
 74
     1
176
     1
 91
        4
176
     1
 64
     7
176
     1
 65
   257
176
     1
 75
     1
176
     1
175
     1
176
     1
 42
1.0
176
     1
 92
       12
176
     1
 66
     7
176
     1
 43
1.0
176
     1
 76
     1
176
     1
 77
     6
176
     1
 78
     2
176
     1
 67
     7
176
     1
 79
     5
176
     1
170
     0
176
     1
171
     0
176
     1
290
     0
176
     1
 93
        1
176
     1
 44
0.0
176
     1
173
     0
176
     1
  0
ENDSEC
  0
EOF
